<?xml version="1.0" encoding="utf-8"?>
<!-- Generator: Adobe Illustrator 27.5.0, SVG Export Plug-In . SVG Version: 6.00 Build 0)  -->
<svg version="1.1" id="Layer_1" xmlns="http://www.w3.org/2000/svg" xmlns:xlink="http://www.w3.org/1999/xlink" x="0px" y="0px"
	 viewBox="0 0 600 420" style="enable-background:new 0 0 600 420;" xml:space="preserve">
<g>
	<path style="fill:#E0F9FE;" d="M53.749,350.657c0,0-8.683-66.072,32.253-90.099c40.936-24.025,11.164-86.051,31.013-113.342
		c19.848-27.291,62.023-42.177,126.529,14.887c64.504,57.063,91.795-17.367,94.275-32.253c2.48-14.886,35.973-78.15,96.758-49.62
		c60.785,28.531-6.199,115.365,31.014,138.935c37.215,23.569,112.885,34.732,79.391,131.491H53.749z"/>
	<g>
		<g>
			<g>
				<g>
					<g>
						<polygon style="fill:#FF5F80;" points="239.431,230.102 239.807,231.684 243.909,230.552 243.429,228.998 						"/>
					</g>
				</g>
			</g>
			<g>
				<g>
					<g>
						<path style="fill:#FF5F80;" d="M233.357,231.298l0.239,1.604c0.009,0.089,4.178-0.764,4.181-0.777l-0.348-1.593
							C237.429,230.531,233.369,231.38,233.357,231.298z"/>
					</g>
				</g>
			</g>
			<g>
				<g>
					<g>
						<path style="fill:#FF5F80;" d="M227.189,231.849l0.077,1.635c0,0,1.073-0.046,2.136-0.102
							c1.057-0.077,2.123-0.229,2.123-0.229l-0.189-1.614c0,0-1.027,0.145-2.062,0.225
							C228.235,231.81,227.189,231.849,227.189,231.849z"/>
					</g>
				</g>
			</g>
			<g>
				<g>
					<g>
						<polygon style="fill:#FF5F80;" points="221.03,231.833 220.929,233.463 225.191,233.585 225.175,231.948 						"/>
					</g>
				</g>
			</g>
			<g>
				<g>
					<g>
						<path style="fill:#FF5F80;" d="M214.901,231.066l-0.286,1.604c0,0,1.044,0.225,2.114,0.352
							c1.052,0.116,2.117,0.222,2.117,0.222l0.155-1.609c0,0-1.028-0.107-2.056-0.22
							C215.922,231.288,214.901,231.066,214.901,231.066z"/>
					</g>
				</g>
			</g>
			<g>
				<g>
					<g>
						<path style="fill:#FF5F80;" d="M208.892,229.665l-0.472,1.547c0,0,1.04,0.284,2.068,0.561
							c1.038,0.292,2.071,0.516,2.071,0.516l0.351-1.59c0,0-1.008-0.229-2.025-0.508
							C209.904,229.915,208.892,229.665,208.892,229.665z"/>
					</g>
				</g>
			</g>
			<g>
				<g>
					<g>
						<path style="fill:#FF5F80;" d="M203.133,227.503l-0.659,1.49c0,0,0.959,0.448,1.955,0.842
							c1.005,0.358,2.023,0.717,2.023,0.717l0.529-1.545c0,0-0.976-0.341-1.948-0.684
							C204.068,227.942,203.133,227.503,203.133,227.503z"/>
					</g>
				</g>
			</g>
		</g>
		<g>
			<g>
				<g>
					<g>
						<polygon style="fill:#FF5F80;" points="197.646,224.708 196.802,226.105 200.56,228.144 201.283,226.671 						"/>
					</g>
				</g>
			</g>
			<g>
				<g>
					<g>
						<path style="fill:#FF5F80;" d="M192.609,221.163l-1.03,1.283c0,0,0.855,0.646,1.71,1.297c0.854,0.643,1.766,1.21,1.766,1.21
							l0.891-1.351c0,0-0.878-0.555-1.704-1.17C193.416,221.806,192.609,221.163,192.609,221.163z"/>
					</g>
				</g>
			</g>
			<g>
				<g>
					<g>
						<path style="fill:#FF5F80;" d="M188.058,217.036l-1.178,1.135c-0.09,0.07,3.086,2.951,3.086,2.951l1.071-1.23
							C191.037,219.892,187.979,217.111,188.058,217.036z"/>
					</g>
				</g>
			</g>
			<g>
				<g>
					<g>
						<path style="fill:#FF5F80;" d="M184.101,212.316l-1.315,0.959c0,0,2.584,3.421,2.662,3.351l1.245-1.082
							C186.611,215.62,184.098,212.326,184.101,212.316z"/>
					</g>
				</g>
			</g>
			<g>
				<g>
					<g>
						<path style="fill:#FF5F80;" d="M180.894,207.092l-1.448,0.752c0,0,0.505,0.952,1.015,1.893
							c0.577,0.899,1.156,1.808,1.156,1.808l1.356-0.892c0,0-0.549-0.877-1.117-1.736
							C181.36,208.013,180.894,207.092,180.894,207.092z"/>
					</g>
				</g>
			</g>
			<g>
				<g>
					<g>
						<path style="fill:#FF5F80;" d="M178.418,201.466l-1.547,0.552c-0.082,0.036,1.619,3.967,1.619,3.967l1.468-0.685
							C179.958,205.299,178.325,201.505,178.418,201.466z"/>
					</g>
				</g>
			</g>
			<g>
				<g>
					<g>
						<path style="fill:#FF5F80;" d="M176.8,195.541l-1.59,0.327c0.001-0.004,0.93,4.172,1.033,4.147l1.561-0.473
							C177.702,199.567,176.826,195.541,176.8,195.541z"/>
					</g>
				</g>
			</g>
		</g>
		<g>
			<g>
				<g>
					<g>
						<path style="fill:#FF5F80;" d="M176.05,189.454l-1.632,0.085c0,0-0.026,1.073,0.164,2.126c0.128,1.07,0.27,2.13,0.27,2.13
							l1.606-0.253C176.467,193.551,175.942,189.454,176.05,189.454z"/>
					</g>
				</g>
			</g>
			<g>
				<g>
					<g>
						<path style="fill:#FF5F80;" d="M176.105,183.291l-1.631-0.121c0,0-0.254,4.279-0.146,4.275l1.624-0.02
							C175.86,187.422,176.104,183.298,176.105,183.291z"/>
					</g>
				</g>
			</g>
			<g>
				<g>
					<g>
						<path style="fill:#FF5F80;" d="M176.985,177.201l-1.598-0.329c-0.1-0.024-0.687,4.217-0.687,4.217l1.635,0.205
							C176.336,181.294,176.887,177.181,176.985,177.201z"/>
					</g>
				</g>
			</g>
			<g>
				<g>
					<g>
						<path style="fill:#FF5F80;" d="M178.589,171.252l-1.546-0.513c0,0-1.299,4.067-1.189,4.098l1.593,0.391
							C177.334,175.204,178.589,171.252,178.589,171.252z"/>
					</g>
				</g>
			</g>
			<g>
				<g>
					<g>
						<polygon style="fill:#FF5F80;" points="180.786,165.477 179.308,164.804 177.708,168.764 179.226,169.329 						"/>
					</g>
				</g>
			</g>
			<g>
				<g>
					<g>
						<path style="fill:#FF5F80;" d="M183.621,159.97l-1.43-0.799c-0.069-0.042-1.952,3.772-1.967,3.769l1.454,0.712
							C181.679,163.652,183.527,159.923,183.621,159.97z"/>
					</g>
				</g>
			</g>
			<g>
				<g>
					<g>
						<path style="fill:#FF5F80;" d="M186.918,154.723l-1.35-0.909c0,0-0.615,0.869-1.217,1.744
							c-0.545,0.917-1.084,1.825-1.084,1.825l1.392,0.845c0,0,0.523-0.894,1.073-1.784
							C186.32,155.589,186.918,154.723,186.918,154.723z"/>
					</g>
				</g>
			</g>
		</g>
		<g>
			<g>
				<g>
					<g>
						<path style="fill:#FF5F80;" d="M190.605,149.746l-1.275-1.014c0,0-0.647,0.822-1.321,1.651
							c-0.683,0.822-1.247,1.724-1.247,1.724l1.316,0.945c0,0,0.558-0.877,1.224-1.683
							C189.96,150.563,190.605,149.746,190.605,149.746z"/>
					</g>
				</g>
			</g>
			<g>
				<g>
					<g>
						<path style="fill:#FF5F80;" d="M194.643,145.039l-1.189-1.105c0,0-0.72,0.781-1.43,1.565
							c-0.752,0.769-1.395,1.615-1.395,1.615l1.253,1.045c0,0,0.641-0.83,1.363-1.582
							C193.951,145.808,194.643,145.039,194.643,145.039z"/>
					</g>
				</g>
			</g>
			<g>
				<g>
					<g>
						<polygon style="fill:#FF5F80;" points="199.035,140.686 197.949,139.467 194.871,142.408 196.026,143.552 						"/>
					</g>
				</g>
			</g>
			<g>
				<g>
					<g>
						<path style="fill:#FF5F80;" d="M203.898,136.898l-0.906-1.348c0,0-0.898,0.609-1.775,1.226
							c-0.832,0.685-1.652,1.354-1.652,1.354l1.037,1.265c0,0,0.793-0.667,1.596-1.319
							C203.04,137.486,203.898,136.898,203.898,136.898z"/>
					</g>
				</g>
			</g>
			<g>
				<g>
					<g>
						<path style="fill:#FF5F80;" d="M209.206,133.859l-0.682-1.475c-0.066-0.11-3.792,2.014-3.792,2.014l0.846,1.389
							C205.578,135.788,209.151,133.75,209.206,133.859z"/>
					</g>
				</g>
			</g>
			<g>
				<g>
					<g>
						<path style="fill:#FF5F80;" d="M214.959,131.941l-0.337-1.596c0,0-1.093,0.149-2.089,0.519
							c-1.045,0.328-2.079,0.663-2.079,0.663l0.586,1.518c0,0,0.965-0.304,1.945-0.613
							C213.942,132.072,214.96,131.936,214.959,131.941z"/>
					</g>
				</g>
			</g>
			<g>
				<g>
					<g>
						<path style="fill:#FF5F80;" d="M220.936,131.545l0.145-1.614c0,0-1.084-0.043-2.186-0.103c-1.075,0.099-2.174,0.16-2.174,0.16
							l0.186,1.625c0,0,1.008-0.075,2.017-0.146C219.921,131.518,220.936,131.545,220.936,131.545z"/>
					</g>
				</g>
			</g>
		</g>
		<g>
			<g>
				<g>
					<g>
						<path style="fill:#FF5F80;" d="M226.688,133.097l0.678-1.472c0.042-0.108-4.111-1.551-4.151-1.365l-0.342,1.594
							C222.935,131.677,226.717,132.998,226.688,133.097z"/>
					</g>
				</g>
			</g>
			<g>
				<g>
					<g>
						<path style="fill:#FF5F80;" d="M231.552,136.499l1.156-1.151c0.071-0.082-3.333-2.875-3.449-2.709l-0.846,1.384
							C228.518,133.875,231.609,136.42,231.552,136.499z"/>
					</g>
				</g>
			</g>
			<g>
				<g>
					<g>
						<path style="fill:#FF5F80;" d="M234.88,141.378l1.509-0.626c0,0-0.477-1.008-1.013-1.985c-0.288-0.46-0.587-0.915-0.826-1.251
							c-0.222-0.35-0.417-0.55-0.417-0.55l-1.288,0.989c0,0,0.188,0.18,0.382,0.502c0.206,0.32,0.472,0.732,0.761,1.147
							C234.456,140.475,234.88,141.378,234.88,141.378z"/>
					</g>
				</g>
			</g>
			<g>
				<g>
					<g>
						<path style="fill:#FF5F80;" d="M235.744,147.057l1.615,0.227c0,0,0.033-0.29,0.079-0.698c0.05-0.436,0.02-1.002-0.026-1.561
							c-0.014-1.14-0.392-2.199-0.352-2.215l-1.578,0.402c-0.048,0.003,0.305,0.953,0.304,1.925
							C235.941,146.116,235.711,147.057,235.744,147.057z"/>
					</g>
				</g>
			</g>
			<g>
				<g>
					<g>
						<path style="fill:#FF5F80;" d="M233.064,151.844l1.023,1.273c-0.038-0.031,0.972-0.658,1.588-1.667
							c0.781-0.873,1.083-2.026,1.146-1.995l-1.523-0.592c-0.053-0.028-0.284,0.926-0.922,1.624
							C233.883,151.308,233.028,151.807,233.064,151.844z"/>
					</g>
				</g>
			</g>
			<g>
				<g>
					<g>
						<path style="fill:#FF5F80;" d="M227.709,153.918l0.211,1.622c0,0,1.086-0.226,2.183-0.445
							c1.058-0.371,2.102-0.782,2.102-0.782l-0.706-1.468c0,0-0.906,0.349-1.821,0.677
							C228.704,153.724,227.709,153.918,227.709,153.918z"/>
					</g>
				</g>
			</g>
			<g>
				<g>
					<g>
						<path style="fill:#FF5F80;" d="M221.732,153.752l-0.28,1.594c-0.085,0.132,4.377,0.431,4.34,0.319l-0.031-1.632
							C225.696,154.131,221.768,153.882,221.732,153.752z"/>
					</g>
				</g>
			</g>
		</g>
		<g>
			<g>
				<g>
					<g>
						<path style="fill:#FF5F80;" d="M216.131,151.792l-0.813,1.404c0,0,0.235,0.138,0.604,0.343
							c0.366,0.187,0.824,0.502,1.365,0.656c1.061,0.374,2.108,0.753,2.108,0.753l0.318-1.595c0,0-0.904-0.337-1.808-0.68
							c-0.489-0.122-0.911-0.407-1.232-0.575C216.359,151.915,216.131,151.792,216.131,151.792z"/>
					</g>
				</g>
			</g>
			<g>
				<g>
					<g>
						<path style="fill:#FF5F80;" d="M211.605,147.96l-1.255,1.028c0,0,0.742,0.795,1.498,1.611
							c0.771,0.776,1.673,1.421,1.673,1.421l0.985-1.304c0,0-0.827-0.577-1.529-1.289
							C212.291,148.692,211.605,147.96,211.605,147.96z"/>
					</g>
				</g>
			</g>
			<g>
				<g>
					<g>
						<path style="fill:#FF5F80;" d="M208.498,142.794l-1.493,0.654c0,0,0.459,0.991,0.977,1.948
							c0.461,0.98,1.116,1.865,1.116,1.865l1.348-0.904c0,0-0.604-0.813-1.031-1.747
							C208.941,143.721,208.498,142.794,208.498,142.794z"/>
					</g>
				</g>
			</g>
			<g>
				<g>
					<g>
						<path style="fill:#FF5F80;" d="M206.68,136.991l-1.593,0.335c0,0,0.225,1.056,0.528,2.093
							c0.139,0.517,0.292,1.043,0.397,1.423c0.131,0.382,0.226,0.634,0.226,0.634l1.543-0.532c0,0-0.087-0.241-0.233-0.606
							c-0.091-0.355-0.232-0.865-0.367-1.358C206.896,138.002,206.68,136.991,206.68,136.991z"/>
					</g>
				</g>
			</g>
			<g>
				<g>
					<g>
						<path style="fill:#FF5F80;" d="M205.894,130.91l-1.635,0.087c0,0,0.346,4.269,0.454,4.267l1.615-0.247
							C206.23,135.038,205.894,130.91,205.894,130.91z"/>
					</g>
				</g>
			</g>
			<g>
				<g>
					<g>
						<path style="fill:#FF5F80;" d="M205.982,124.754l-1.619-0.125c0,0-0.055,1.072-0.127,2.141
							c-0.086,1.066-0.02,2.135-0.02,2.135l1.638-0.02c0,0-0.066-1.03,0.02-2.066C205.927,125.792,205.982,124.754,205.982,124.754z
							"/>
					</g>
				</g>
			</g>
			<g>
				<g>
					<g>
						<path style="fill:#FF5F80;" d="M206.797,118.635l-1.592-0.299c0,0-0.233,1.042-0.376,2.1
							c-0.133,1.057-0.265,2.116-0.265,2.116l1.628,0.182c0,0,0.111-1.026,0.244-2.056
							C206.583,119.654,206.797,118.635,206.797,118.635z"/>
					</g>
				</g>
			</g>
		</g>
		<g>
			<g>
				<g>
					<g>
						<polygon style="fill:#FF5F80;" points="208.228,112.631 206.669,112.16 205.602,116.294 207.182,116.642 						"/>
					</g>
				</g>
			</g>
			<g>
				<g>
					<g>
						<path style="fill:#FF5F80;" d="M210.297,106.8l-1.504-0.617c0,0-0.4,0.991-0.798,1.989c-0.344,0.997-0.677,2.021-0.677,2.021
							l1.547,0.507c0,0,0.328-0.995,0.654-1.983C209.904,107.765,210.297,106.8,210.297,106.8z"/>
					</g>
				</g>
			</g>
			<g>
				<g>
					<g>
						<polygon style="fill:#FF5F80;" points="212.857,101.168 211.417,100.409 209.559,104.256 211.066,104.915 						"/>
					</g>
				</g>
			</g>
			<g>
				<g>
					<g>
						<path style="fill:#FF5F80;" d="M216,95.837l-1.356-0.886c0,0-0.587,0.896-1.159,1.792c-0.537,0.93-1.057,1.849-1.057,1.849
							l1.416,0.8c0,0,0.518-0.9,1.021-1.808C215.445,96.71,216,95.837,216,95.837z"/>
					</g>
				</g>
			</g>
			<g>
				<g>
					<g>
						<polygon style="fill:#FF5F80;" points="219.594,90.806 218.321,89.79 215.78,93.195 217.109,94.135 						"/>
					</g>
				</g>
			</g>
			<g>
				<g>
					<g>
						<path style="fill:#FF5F80;" d="M223.711,86.192l-1.167-1.136c0,0-0.768,0.738-1.477,1.53
							c-0.695,0.816-1.393,1.607-1.393,1.607l1.232,1.066c0,0,0.688-0.782,1.359-1.565
							C222.952,86.907,223.711,86.192,223.711,86.192z"/>
					</g>
				</g>
			</g>
			<g>
				<g>
					<g>
						<path style="fill:#FF5F80;" d="M228.261,82.003l-1.043-1.246c0,0-3.273,2.751-3.196,2.816l1.118,1.183
							C225.089,84.692,228.261,82.003,228.261,82.003z"/>
					</g>
				</g>
			</g>
		</g>
		<g>
			<g>
				<g>
					<g>
						<path style="fill:#FF5F80;" d="M233.181,78.303l-0.877-1.359c-0.001,0.004-0.907,0.601-1.757,1.246
							c-0.842,0.629-1.722,1.261-1.722,1.261l1.005,1.287c0,0,0.841-0.613,1.669-1.23C232.34,78.881,233.181,78.303,233.181,78.303z
							"/>
					</g>
				</g>
			</g>
			<g>
				<g>
					<g>
						<path style="fill:#FF5F80;" d="M238.525,75.177l-0.752-1.438c0,0-0.958,0.488-1.897,0.987
							c-0.904,0.559-1.813,1.116-1.813,1.116l0.859,1.393c0,0,0.87-0.557,1.763-1.099C237.594,75.652,238.525,75.177,238.525,75.177
							z"/>
					</g>
				</g>
			</g>
			<g>
				<g>
					<g>
						<path style="fill:#FF5F80;" d="M244.131,72.597l-0.605-1.526c0,0-3.94,1.61-3.897,1.715l0.697,1.45
							C240.279,74.143,244.131,72.597,244.131,72.597z"/>
					</g>
				</g>
			</g>
			<g>
				<g>
					<g>
						<polygon style="fill:#FF5F80;" points="249.978,70.562 249.521,69.005 245.463,70.319 246.031,71.849 						"/>
					</g>
				</g>
			</g>
			<g>
				<g>
					<g>
						<path style="fill:#FF5F80;" d="M256,69.16l-0.311-1.599c-0.007-0.102-4.156,0.936-4.156,0.936l0.416,1.575
							C251.948,70.071,255.98,69.071,256,69.16z"/>
					</g>
				</g>
			</g>
			<g>
				<g>
					<g>
						<path style="fill:#FF5F80;" d="M262.128,68.323l-0.136-1.629c-0.014,0.004-1.077,0.024-2.134,0.225
							c-1.048,0.166-2.093,0.324-2.093,0.324l0.238,1.603c0,0,1.021-0.153,2.065-0.314
							C261.073,68.347,262.131,68.314,262.128,68.323z"/>
					</g>
				</g>
			</g>
			<g>
				<g>
					<g>
						<path style="fill:#FF5F80;" d="M268.317,67.986l-0.019-1.623c0,0-1.073,0.004-2.133,0.001
							c-1.062,0.095-2.119,0.175-2.119,0.175l0.11,1.635c0,0,1.042-0.1,2.085-0.175C267.27,67.985,268.317,67.986,268.317,67.986z"
							/>
					</g>
				</g>
			</g>
		</g>
		<g>
			<g>
				<g>
					<g>
						<path style="fill:#FF5F80;" d="M274.512,68.173l0.115-1.635c0,0-4.251-0.288-4.252-0.193l-0.03,1.626
							C270.358,67.878,274.512,68.173,274.512,68.173z"/>
					</g>
				</g>
			</g>
			<g>
				<g>
					<g>
						<polygon style="fill:#FF5F80;" points="280.656,68.889 280.915,67.286 276.712,66.7 276.532,68.314 						"/>
					</g>
				</g>
			</g>
			<g>
				<g>
					<g>
						<path style="fill:#FF5F80;" d="M286.684,70.226l0.43-1.572c0,0-1.011-0.34-2.065-0.522c-1.034-0.22-2.077-0.449-2.077-0.449
							l-0.318,1.599C282.651,69.288,286.716,70.149,286.684,70.226z"/>
					</g>
				</g>
			</g>
			<g>
				<g>
					<g>
						<path style="fill:#FF5F80;" d="M292.579,72.112l0.574-1.537c0,0-1.019-0.346-2.014-0.706
							c-0.985-0.391-2.023-0.637-2.023-0.637l-0.474,1.555c0,0,1.015,0.244,1.99,0.624
							C291.608,71.756,292.579,72.112,292.579,72.112z"/>
					</g>
				</g>
			</g>
			<g>
				<g>
					<g>
						<polygon style="fill:#FF5F80;" points="298.31,74.465 299.009,72.999 295.101,71.31 294.499,72.818 						"/>
					</g>
				</g>
			</g>
			<g>
				<g>
					<g>
						<path style="fill:#FF5F80;" d="M303.827,77.313l0.794-1.422c0,0-0.927-0.513-1.854-1.033
							c-0.936-0.474-1.898-0.944-1.898-0.944l-0.732,1.461c0,0,0.94,0.459,1.871,0.929C302.92,76.815,303.827,77.313,303.827,77.313
							z"/>
					</g>
				</g>
			</g>
			<g>
				<g>
					<g>
						<polygon style="fill:#FF5F80;" points="309.155,80.502 310.042,79.127 306.44,76.916 305.615,78.319 						"/>
					</g>
				</g>
			</g>
		</g>
		<g>
			<g>
				<g>
					<g>
						<path style="fill:#FF5F80;" d="M314.326,83.991l0.946-1.329c0,0-0.857-0.628-1.729-1.215
							c-0.883-0.589-1.765-1.171-1.765-1.171l-0.902,1.341c0,0,0.871,0.588,1.74,1.176
							C313.492,83.367,314.326,83.991,314.326,83.991z"/>
					</g>
				</g>
			</g>
			<g>
				<g>
					<g>
						<polygon style="fill:#FF5F80;" points="319.354,87.693 320.339,86.394 316.954,83.873 315.979,85.186 						"/>
					</g>
				</g>
			</g>
			<g>
				<g>
					<g>
						<polygon style="fill:#FF5F80;" points="324.282,91.548 325.283,90.276 321.983,87.662 320.966,88.95 						"/>
					</g>
				</g>
			</g>
			<g>
				<g>
					<g>
						<polygon style="fill:#FF5F80;" points="329.152,95.465 330.177,94.201 326.896,91.556 325.882,92.835 						"/>
					</g>
				</g>
			</g>
			<g>
				<g>
					<g>
						<polygon style="fill:#FF5F80;" points="334.039,99.418 335.053,98.145 331.772,95.503 330.752,96.766 						"/>
					</g>
				</g>
			</g>
			<g>
				<g>
					<g>
						<polygon style="fill:#FF5F80;" points="338.973,103.29 339.966,102.002 336.671,99.414 335.656,100.702 						"/>
					</g>
				</g>
			</g>
			<g>
				<g>
					<g>
						<polygon style="fill:#FF5F80;" points="344.035,107.05 344.966,105.728 341.601,103.258 340.615,104.552 						"/>
					</g>
				</g>
			</g>
		</g>
		<g>
			<g>
				<g>
					<g>
						<path style="fill:#FF5F80;" d="M349.268,110.574l0.882-1.362c0,0-0.898-0.573-1.763-1.13
							c-0.867-0.604-1.727-1.191-1.727-1.191l-0.936,1.343c0,0,0.893,0.593,1.768,1.204
							C348.37,109.997,349.268,110.574,349.268,110.574z"/>
					</g>
				</g>
			</g>
			<g>
				<g>
					<g>
						<polygon style="fill:#FF5F80;" points="354.714,113.811 355.489,112.369 351.867,110.298 351.014,111.689 						"/>
					</g>
				</g>
			</g>
			<g>
				<g>
					<g>
						<path style="fill:#FF5F80;" d="M360.415,116.559l0.659-1.498c0,0-0.953-0.416-1.921-0.841c-0.917-0.453-1.855-0.93-1.855-0.93
							l-0.73,1.455c0,0,0.947,0.485,1.906,0.963C359.451,116.132,360.415,116.559,360.415,116.559z"/>
					</g>
				</g>
			</g>
			<g>
				<g>
					<g>
						<polygon style="fill:#FF5F80;" points="366.364,118.795 366.859,117.254 362.926,115.871 362.339,117.377 						"/>
					</g>
				</g>
			</g>
			<g>
				<g>
					<g>
						<path style="fill:#FF5F80;" d="M372.547,120.312l0.292-1.591c0,0-1.001-0.2-2.035-0.388c-0.992-0.28-1.998-0.545-1.998-0.545
							l-0.429,1.569c0,0,1.023,0.276,2.065,0.556C371.483,120.114,372.547,120.312,372.547,120.312z"/>
					</g>
				</g>
			</g>
			<g>
				<g>
					<g>
						<polygon style="fill:#FF5F80;" points="378.838,121.167 378.949,119.55 374.838,119.097 374.599,120.705 						"/>
					</g>
				</g>
			</g>
			<g>
				<g>
					<g>
						<path style="fill:#FF5F80;" d="M385.204,121.211l-0.078-1.625c0,0-1.028,0.114-2.065,0.077
							c-1.04-0.036-2.068-0.054-2.068-0.054l-0.044,1.64c0,0,1.054,0.015,2.129,0.038
							C384.14,121.321,385.204,121.211,385.204,121.211z"/>
					</g>
				</g>
			</g>
		</g>
		<g>
			<g>
				<g>
					<g>
						<path style="fill:#FF5F80;" d="M391.509,120.558l-0.211-1.615c0,0-4.131,0.628-4.123,0.52l0.114,1.625
							C387.316,121.2,391.509,120.558,391.509,120.558z"/>
					</g>
				</g>
			</g>
			<g>
				<g>
					<g>
						<path style="fill:#FF5F80;" d="M397.755,119.59l-0.328-1.594c0,0-1.028,0.196-2.057,0.345
							c-1.034,0.153-2.063,0.301-2.063,0.301l0.264,1.617c0,0,1.043-0.169,2.088-0.324
							C396.716,119.785,397.755,119.59,397.755,119.59z"/>
					</g>
				</g>
			</g>
			<g>
				<g>
					<g>
						<polygon style="fill:#FF5F80;" points="403.896,117.981 403.424,116.417 399.398,117.472 399.776,119.061 						"/>
					</g>
				</g>
			</g>
			<g>
				<g>
					<g>
						<polygon style="fill:#FF5F80;" points="409.864,115.797 409.228,114.309 405.369,115.837 405.884,117.382 						"/>
					</g>
				</g>
			</g>
			<g>
				<g>
					<g>
						<path style="fill:#FF5F80;" d="M415.569,113.009l-0.804-1.415c0,0-0.906,0.509-1.813,1.019
							c-0.447,0.247-0.9,0.502-1.228,0.696c-0.358,0.168-0.607,0.239-0.607,0.239l0.695,1.477
							C411.857,115.169,415.569,113.009,415.569,113.009z"/>
					</g>
				</g>
			</g>
			<g>
				<g>
					<g>
						<path style="fill:#FF5F80;" d="M420.865,109.455l-1.013-1.272c0,0-3.232,2.572-3.319,2.419l0.859,1.387
							C417.493,112.133,420.865,109.455,420.865,109.455z"/>
					</g>
				</g>
			</g>
			<g>
				<g>
					<g>
						<path style="fill:#FF5F80;" d="M425.543,105.106l-1.209-1.08c0,0-0.706,0.731-1.418,1.489
							c-0.684,0.775-1.429,1.476-1.462,1.438l1.081,1.22c0.015,0.036,0.813-0.692,1.532-1.504
							C424.807,105.89,425.543,105.106,425.543,105.106z"/>
					</g>
				</g>
			</g>
		</g>
		<g>
			<g>
				<g>
					<g>
						<polygon style="fill:#FF5F80;" points="429.347,99.917 427.917,99.113 425.671,102.528 426.947,103.526 						"/>
					</g>
				</g>
			</g>
			<g>
				<g>
					<g>
						<path style="fill:#FF5F80;" d="M431.748,93.93l-1.563-0.427c-0.044-0.011-0.111,1.029-0.595,1.94
							c-0.406,0.942-0.815,1.882-0.815,1.882l1.478,0.673c0,0,0.437-1.001,0.87-1.996c0.215-0.501,0.426-0.999,0.482-1.409
							C431.698,94.191,431.748,93.93,431.748,93.93z"/>
					</g>
				</g>
			</g>
			<g>
				<g>
					<g>
						<path style="fill:#FF5F80;" d="M432.482,87.496l-1.615,0.054c0,0-0.022,4.039-0.269,4.027l1.609,0.257
							c0,0,0.331-1.055,0.247-2.159C432.479,88.578,432.482,87.496,432.482,87.496z"/>
					</g>
				</g>
			</g>
			<g>
				<g>
					<g>
						<path style="fill:#FF5F80;" d="M431.161,81.125l-1.509,0.586c-0.056,0.029,0.52,0.893,0.628,1.9
							c0.209,0.992,0.397,1.972,0.397,1.972l1.609-0.225c0,0-0.208-1.079-0.428-2.149C431.732,82.099,431.108,81.143,431.161,81.125
							z"/>
					</g>
				</g>
			</g>
			<g>
				<g>
					<g>
						<path style="fill:#FF5F80;" d="M427.792,75.538l-1.22,1.075c0,0,0.603,0.826,1.2,1.612c0.289,0.406,0.593,0.815,0.817,1.11
							c0.15,0.36,0.265,0.594,0.265,0.594l1.432-0.778c0,0-0.12-0.252-0.301-0.628c-0.225-0.332-0.542-0.772-0.881-1.22
							C428.46,76.426,427.792,75.538,427.792,75.538z"/>
					</g>
				</g>
			</g>
			<g>
				<g>
					<g>
						<path style="fill:#FF5F80;" d="M422.689,71.516l-0.804,1.411c-0.022,0.037,0.951,0.388,1.732,1.03
							c0.767,0.666,1.524,1.312,1.524,1.312l1.108-1.225c0,0-0.839-0.691-1.673-1.411C423.711,71.94,422.666,71.553,422.689,71.516z
							"/>
					</g>
				</g>
			</g>
			<g>
				<g>
					<g>
						<path style="fill:#FF5F80;" d="M416.678,69.147l-0.395,1.582c0,0,0.987,0.278,1.952,0.574c0.5,0.137,0.992,0.288,1.343,0.388
							c0.342,0.185,0.559,0.3,0.559,0.3l0.667-1.486c0,0-0.236-0.128-0.611-0.318c-0.384-0.116-0.912-0.274-1.427-0.42
							C417.707,69.456,416.678,69.147,416.678,69.147z"/>
					</g>
				</g>
			</g>
		</g>
		<g>
			<g>
				<g>
					<g>
						<path style="fill:#FF5F80;" d="M410.243,68.441l0.047,1.622c0,0,1.021,0.004,2.046-0.009c0.995,0.115,2.016,0.25,2.016,0.25
							l0.241-1.617c0,0-1.084-0.126-2.165-0.256C411.327,68.437,410.243,68.441,410.243,68.441z"/>
					</g>
				</g>
			</g>
			<g>
				<g>
					<g>
						<path style="fill:#FF5F80;" d="M403.885,69.388l0.403,1.563c0,0,1.004-0.224,1.987-0.46c1.021-0.192,2.046-0.282,2.046-0.282
							l-0.185-1.624c0,0-1.096,0.121-2.147,0.303C404.931,69.138,403.885,69.388,403.885,69.388z"/>
					</g>
				</g>
			</g>
			<g>
				<g>
					<g>
						<path style="fill:#FF5F80;" d="M397.861,71.589l0.689,1.479c0,0,0.942-0.424,1.882-0.852c0.965-0.378,1.943-0.683,1.943-0.683
							l-0.518-1.543c0,0-1.021,0.331-2.038,0.72C398.845,71.153,397.861,71.589,397.861,71.589z"/>
					</g>
				</g>
			</g>
			<g>
				<g>
					<g>
						<path style="fill:#FF5F80;" d="M392.323,74.804l0.935,1.347c0,0,0.85-0.579,1.706-1.152c0.901-0.512,1.791-1.001,1.791-1.001
							l-0.762-1.448c0,0-0.945,0.537-1.888,1.052C393.232,74.208,392.323,74.804,392.323,74.804z"/>
					</g>
				</g>
			</g>
			<g>
				<g>
					<g>
						<path style="fill:#FF5F80;" d="M387.348,78.796l1.12,1.192c0,0,0.723-0.731,1.548-1.371c0.79-0.647,1.599-1.29,1.599-1.29
							l-0.978-1.294c0,0-0.854,0.664-1.682,1.327C388.12,78.032,387.348,78.796,387.348,78.796z"/>
					</g>
				</g>
			</g>
			<g>
				<g>
					<g>
						<path style="fill:#FF5F80;" d="M382.999,83.461l1.276,1.013c-0.083-0.061,2.722-3.088,2.722-3.088l-1.165-1.146
							C385.832,80.24,382.896,83.395,382.999,83.461z"/>
					</g>
				</g>
			</g>
			<g>
				<g>
					<g>
						<path style="fill:#FF5F80;" d="M379.33,88.679l1.412,0.823c0,0,2.213-3.465,2.282-3.428l-1.323-0.963
							C381.64,85.068,379.33,88.679,379.33,88.679z"/>
					</g>
				</g>
			</g>
		</g>
		<g>
			<g>
				<g>
					<g>
						<path style="fill:#FF5F80;" d="M376.497,94.417l1.521,0.613c0,0,0.4-0.962,0.82-1.899c0.387-0.949,0.92-1.837,0.92-1.837
							l-1.437-0.772c0,0-0.557,0.916-0.957,1.918C376.931,93.431,376.497,94.417,376.497,94.417z"/>
					</g>
				</g>
			</g>
			<g>
				<g>
					<g>
						<path style="fill:#FF5F80;" d="M374.604,100.516l1.587,0.367c0,0,0.214-1.005,0.481-2.011
							c0.325-0.973,0.647-1.957,0.647-1.957l-1.554-0.528c0,0-0.326,1.021-0.671,2.042
							C374.815,99.469,374.604,100.516,374.604,100.516z"/>
					</g>
				</g>
			</g>
			<g>
				<g>
					<g>
						<path style="fill:#FF5F80;" d="M373.715,106.857l1.629,0.09c-0.128-0.013,0.425-4.099,0.425-4.099l-1.601-0.271
							C374.168,102.577,373.587,106.849,373.715,106.857z"/>
					</g>
				</g>
			</g>
			<g>
				<g>
					<g>
						<path style="fill:#FF5F80;" d="M373.932,113.266l1.623-0.217c0,0-0.4-4.087-0.27-4.085l-1.606,0.001
							C373.536,108.967,373.932,113.266,373.932,113.266z"/>
					</g>
				</g>
			</g>
			<g>
				<g>
					<g>
						<path style="fill:#FF5F80;" d="M375.305,119.505l1.576-0.468c0,0-0.319-0.985-0.603-1.97c-0.2-1.015-0.392-2.032-0.392-2.032
							l-1.607,0.29c0,0,0.214,1.065,0.417,2.124C375.005,118.476,375.305,119.505,375.305,119.505z"/>
					</g>
				</g>
			</g>
			<g>
				<g>
					<g>
						<polygon style="fill:#FF5F80;" points="377.617,125.475 379.077,124.764 377.445,120.963 375.93,121.52 						"/>
					</g>
				</g>
			</g>
			<g>
				<g>
					<g>
						<path style="fill:#FF5F80;" d="M380.857,130.961l1.351-0.912c0,0-0.637-0.827-1.147-1.715
							c-0.495-0.901-1.018-1.799-1.018-1.799l-1.421,0.776c0,0,0.531,0.945,1.037,1.865
							C380.203,130.111,380.857,130.961,380.857,130.961z"/>
					</g>
				</g>
			</g>
		</g>
		<g>
			<g>
				<g>
					<g>
						<path style="fill:#FF5F80;" d="M384.754,136.01l1.206-1.069c0,0-2.696-3.149-2.594-3.222l-1.317,0.971
							C381.954,132.757,384.754,136.01,384.754,136.01z"/>
					</g>
				</g>
			</g>
			<g>
				<g>
					<g>
						<polygon style="fill:#FF5F80;" points="389.148,140.577 390.241,139.398 387.303,136.464 386.107,137.578 						"/>
					</g>
				</g>
			</g>
			<g>
				<g>
					<g>
						<polygon style="fill:#FF5F80;" points="393.933,144.722 394.953,143.425 391.765,140.758 390.681,141.977 						"/>
					</g>
				</g>
			</g>
			<g>
				<g>
					<g>
						<polygon style="fill:#FF5F80;" points="399.064,148.436 399.979,147.086 396.582,144.648 395.617,145.954 						"/>
					</g>
				</g>
			</g>
			<g>
				<g>
					<g>
						<polygon style="fill:#FF5F80;" points="404.419,151.785 405.253,150.377 401.694,148.176 400.811,149.544 						"/>
					</g>
				</g>
			</g>
			<g>
				<g>
					<g>
						<polygon style="fill:#FF5F80;" points="409.959,154.808 410.713,153.359 407.034,151.38 406.237,152.799 						"/>
					</g>
				</g>
			</g>
			<g>
				<g>
					<g>
						<polygon style="fill:#FF5F80;" points="415.65,157.55 416.316,156.071 412.525,154.313 411.802,155.773 						"/>
					</g>
				</g>
			</g>
		</g>
		<g>
			<g>
				<g>
					<g>
						<path style="fill:#FF5F80;" d="M421.318,160.168l0.72-1.46c0,0-0.948-0.481-1.946-0.917c-0.948-0.43-1.912-0.855-1.912-0.855
							l-0.656,1.483c0,0,0.97,0.445,1.935,0.866C420.39,159.702,421.318,160.168,421.318,160.168z"/>
					</g>
				</g>
			</g>
			<g>
				<g>
					<g>
						<path style="fill:#FF5F80;" d="M426.689,163.209l0.873-1.377c0,0-0.89-0.592-1.815-1.109
							c-0.929-0.523-1.859-1.058-1.859-1.058l-0.771,1.438c0,0,0.901,0.516,1.802,1.029
							C425.824,162.637,426.694,163.215,426.689,163.209z"/>
					</g>
				</g>
			</g>
			<g>
				<g>
					<g>
						<path style="fill:#FF5F80;" d="M431.771,166.75l0.981-1.284c0,0-0.856-0.642-1.699-1.281
							c-0.834-0.674-1.751-1.215-1.751-1.215l-0.893,1.352c0,0,0.876,0.534,1.69,1.18C430.934,166.13,431.771,166.75,431.771,166.75
							z"/>
					</g>
				</g>
			</g>
			<g>
				<g>
					<g>
						<polygon style="fill:#FF5F80;" points="436.493,170.741 437.6,169.557 434.405,166.739 433.374,167.994 						"/>
					</g>
				</g>
			</g>
			<g>
				<g>
					<g>
						<path style="fill:#FF5F80;" d="M440.771,175.198l1.23-1.063c0,0-0.721-0.779-1.44-1.558c-0.736-0.766-1.482-1.554-1.482-1.554
							l-1.154,1.156c0,0,0.718,0.745,1.432,1.499C440.058,174.441,440.771,175.198,440.771,175.198z"/>
					</g>
				</g>
			</g>
			<g>
				<g>
					<g>
						<path style="fill:#FF5F80;" d="M444.441,180.133l1.373-0.898c0.128-0.081-2.521-3.435-2.529-3.438l-1.284,1.013
							C442.001,176.811,444.572,180.044,444.441,180.133z"/>
					</g>
				</g>
			</g>
			<g>
				<g>
					<g>
						<path style="fill:#FF5F80;" d="M447.482,185.483l1.462-0.712c0.156-0.082-2.06-3.742-2.06-3.742l-1.403,0.838
							C445.482,181.867,447.636,185.413,447.482,185.483z"/>
					</g>
				</g>
			</g>
		</g>
		<g>
			<g>
				<g>
					<g>
						<path style="fill:#FF5F80;" d="M449.787,191.17l1.546-0.492c0.172-0.065-1.549-3.972-1.549-3.972l-1.504,0.632
							C448.28,187.338,449.968,191.115,449.787,191.17z"/>
					</g>
				</g>
			</g>
			<g>
				<g>
					<g>
						<path style="fill:#FF5F80;" d="M451.282,197.148l1.607-0.288c0.113-0.026-1.026-4.15-1.026-4.15l-1.567,0.428
							C450.296,193.139,451.394,197.128,451.282,197.148z"/>
					</g>
				</g>
			</g>
			<g>
				<g>
					<g>
						<polygon style="fill:#FF5F80;" points="451.922,203.266 453.546,203.203 453.098,198.947 451.502,199.157 						"/>
					</g>
				</g>
			</g>
			<g>
				<g>
					<g>
						<polygon style="fill:#FF5F80;" points="451.697,209.428 453.314,209.55 453.54,205.288 451.908,205.286 						"/>
					</g>
				</g>
			</g>
			<g>
				<g>
					<g>
						<path style="fill:#FF5F80;" d="M450.815,215.524l1.602,0.304c0,0,0.211-1.045,0.408-2.086c0.2-1.041,0.434-2.094,0.398-2.086
							l-1.629-0.205c0.042,0.013-0.169,1.016-0.384,2.029C451.019,214.509,450.815,215.524,450.815,215.524z"/>
					</g>
				</g>
			</g>
			<g>
				<g>
					<g>
						<path style="fill:#FF5F80;" d="M449.417,221.54l1.552,0.454c0,0,0.092-0.245,0.208-0.622c0.145-0.381,0.334-0.873,0.4-1.417
							c0.22-1.027,0.423-2.087,0.423-2.087l-1.582-0.353c0,0-0.2,1.019-0.392,2.039c-0.086,0.524-0.284,1.005-0.412,1.372
							C449.498,221.308,449.417,221.54,449.417,221.54z"/>
					</g>
				</g>
			</g>
			<g>
				<g>
					<g>
						<polygon style="fill:#FF5F80;" points="447.4,227.403 448.914,227.985 450.293,223.968 448.744,223.466 						"/>
					</g>
				</g>
			</g>
		</g>
	</g>
	<g>
		<g>
			<path style="fill:#C3E8ED;" d="M569.728,350.717c0,1.631-117.647,2.957-262.771,2.957c-145.131,0-262.788-1.326-262.788-2.957
				c0-1.63,117.657-2.952,262.788-2.952C452.081,347.765,569.728,349.087,569.728,350.717z"/>
		</g>
	</g>
	<g>
		<g>
			<path style="fill:#1766E5;" d="M264.367,336.913c0,6.52-5.284,11.812-11.811,11.812h-95.229c-6.524,0-11.813-5.292-11.813-11.812
				V151.496c0-6.52,5.288-11.804,11.813-11.804h95.229c6.527,0,11.811,5.284,11.811,11.804V336.913z"/>
		</g>
		<g>
			<rect x="153.949" y="158.177" style="fill:#D3D5FD;" width="101.561" height="162.389"/>
		</g>
		<g>
			<path style="fill:#FFFFFF;" d="M212.562,333.743c0,4.323-3.519,7.83-7.83,7.83c-4.339,0-7.838-3.507-7.838-7.83
				c0-4.327,3.499-7.838,7.838-7.838C209.043,325.905,212.562,329.416,212.562,333.743z"/>
		</g>
		<g>
			<path style="fill:#FFFFFF;" d="M241.336,147.844c0,1.142-0.926,2.064-2.063,2.064h-67.905c-1.145,0-2.071-0.922-2.071-2.064l0,0
				c0-1.142,0.926-2.067,2.071-2.067h67.905C240.41,145.776,241.336,146.702,241.336,147.844L241.336,147.844z"/>
		</g>
	</g>
	<g>
		<g>
			<path style="fill:#BDBDFD;" d="M176.723,166.777c0,2.615-2.113,4.736-4.727,4.736h-64.098c-2.61,0-4.731-2.121-4.731-4.736v-6.84
				c0-2.615,2.121-4.735,4.731-4.735h64.098c2.614,0,4.727,2.12,4.727,4.735V166.777z"/>
		</g>
		<g>
			<polygon style="fill:#A8A8EF;" points="113.367,157.597 115.082,161.072 118.917,161.628 116.144,164.333 116.8,168.152 
				113.367,166.35 109.94,168.152 110.591,164.333 107.818,161.628 111.653,161.072 			"/>
		</g>
		<g>
			<polygon style="fill:#A8A8EF;" points="125.994,157.597 127.708,161.072 131.543,161.628 128.771,164.333 129.427,168.152 
				125.994,166.35 122.563,168.152 123.222,164.333 120.445,161.628 124.28,161.072 			"/>
		</g>
		<g>
			<polygon style="fill:#A8A8EF;" points="138.625,157.597 140.335,161.072 144.174,161.628 141.398,164.333 142.053,168.152 
				138.625,166.35 135.192,168.152 135.849,164.333 133.072,161.628 136.907,161.072 			"/>
		</g>
		<g>
			<polygon style="fill:#A8A8EF;" points="151.248,157.597 152.958,161.072 156.801,161.628 154.025,164.333 154.68,168.152 
				151.248,166.35 147.819,168.152 148.471,164.333 145.698,161.628 149.537,161.072 			"/>
		</g>
		<g>
			<polygon style="fill:#FEBD01;" points="163.874,157.597 165.589,161.072 169.428,161.628 166.651,164.333 167.307,168.152 
				163.874,166.35 160.446,168.152 161.098,164.333 158.325,161.628 162.16,161.072 			"/>
		</g>
	</g>
	<g>
		<g>
			<path style="fill:#BDBDFD;" d="M187.864,189.48c0,2.611-2.117,4.736-4.731,4.736h-64.098c-2.61,0-4.728-2.125-4.728-4.736v-6.84
				c0-2.615,2.117-4.736,4.728-4.736h64.098c2.614,0,4.731,2.121,4.731,4.736V189.48z"/>
		</g>
		<g>
			<polygon style="fill:#A8A8EF;" points="124.505,180.299 126.22,183.773 130.059,184.33 127.282,187.035 127.938,190.855 
				124.505,189.052 121.077,190.855 121.733,187.035 118.956,184.33 122.791,183.773 			"/>
		</g>
		<g>
			<polygon style="fill:#A8A8EF;" points="137.132,180.299 138.85,183.773 142.685,184.33 139.908,187.035 140.568,190.855 
				137.132,189.052 133.7,190.855 134.359,187.035 131.583,184.33 135.418,183.773 			"/>
		</g>
		<g>
			<polygon style="fill:#A8A8EF;" points="149.763,180.299 151.477,183.773 155.312,184.33 152.535,187.035 153.191,190.855 
				149.763,189.052 146.33,190.855 146.986,187.035 144.21,184.33 148.045,183.773 			"/>
		</g>
		<g>
			<polygon style="fill:#A8A8EF;" points="162.39,180.299 164.1,183.773 167.942,184.33 165.162,187.035 165.817,190.855 
				162.39,189.052 158.957,190.855 159.608,187.035 156.836,184.33 160.675,183.773 			"/>
		</g>
		<g>
			<polygon style="fill:#FEBD01;" points="175.012,180.299 176.727,183.773 180.566,184.33 177.789,187.035 178.444,190.855 
				175.012,189.052 171.584,190.855 172.239,187.035 169.463,184.33 173.298,183.773 			"/>
		</g>
	</g>
	<g>
		<g>
			<g>
				<path style="fill:#F5F5FF;" d="M330.369,298.242c0,3.652-3.111,6.606-6.964,6.606H170.509c-3.846,0-6.96-2.954-6.96-6.606
					v-90.927c0-3.645,3.114-6.6,6.96-6.6h152.896c3.853,0,6.964,2.954,6.964,6.6V298.242z"/>
			</g>
			<g>
				<path style="fill:#A8A8EF;" d="M323.405,200.716H170.509c-3.846,0-6.96,2.954-6.96,6.6v12.264h166.82v-12.264
					C330.369,203.67,327.258,200.716,323.405,200.716z"/>
			</g>
			<g>
				<path style="fill:#F5F9FC;" d="M180.434,210.203c0,1.811-1.549,3.279-3.454,3.279c-1.919,0-3.464-1.469-3.464-3.279
					c0-1.814,1.545-3.279,3.464-3.279C178.885,206.924,180.434,208.389,180.434,210.203z"/>
			</g>
			<g>
				<path style="fill:#F5F9FC;" d="M189.169,210.203c0,1.811-1.552,3.279-3.464,3.279c-1.905,0-3.45-1.469-3.45-3.279
					c0-1.814,1.545-3.279,3.45-3.279C187.617,206.924,189.169,208.389,189.169,210.203z"/>
			</g>
			<g>
				<path style="fill:#F5F9FC;" d="M197.598,210.203c0,1.811-1.545,3.279-3.457,3.279c-1.905,0-3.454-1.469-3.454-3.279
					c0-1.814,1.549-3.279,3.454-3.279C196.053,206.924,197.598,208.389,197.598,210.203z"/>
			</g>
		</g>
		<g>
			<rect x="186.02" y="282.091" style="fill:#BDBDFD;" width="55.877" height="13.39"/>
		</g>
		<g>
			<rect x="249.252" y="282.091" style="fill:#BDBDFD;" width="55.877" height="13.39"/>
		</g>
		<g>
			<rect x="176.021" y="226.714" style="fill:#BDBDFD;" width="142.438" height="48.466"/>
		</g>
	</g>
	<g>
		<g>
			<path style="fill:#FEAA3A;" d="M386.448,228.796l-5.737,7.124c0,0,19.113,23.532,50.006,15.769
				c8.23-2.068,17.729-9.462,28.449-20.243c12.467-12.531,22.893-9.113,30.007,4.475c4.587,8.765,8.917,32.434,45.063,29.461
				l6.946-10.358l-28.785-28.78l-30.225-14.557l-18.45-2.779l-24.838,14.665L386.448,228.796z"/>
		</g>
		<g>
			<path style="fill:#FEAA3A;" d="M409.881,199.051c0,0,12.584,7.541,22.403,0.165c14.788-11.111,23.643-20.809,41.023-23.918
				c10.864-1.945,29.867-1.641,47.232,26.586c5.024,8.17,18.195,32.783,46.646,17.782l-5.554,7.777l-15.035,8.477l-29.613-11.921
				l-23.672-35.005l-21.889-3.557l-20.114,21.559L416.801,220.5l-11.121-16.06L409.881,199.051z"/>
		</g>
		<g>
			<path style="fill:#FE4040;" d="M407.158,202.553c0,0,14.447,14.668,30.672,0.053c14.565-13.116,37.674-34.004,65.012-11.835
				c25.09,20.348,19.446,48.897,58.79,36.672l-23.119,31.563c0,0-29.199,10.225-40.003-18.228
				c-10.003-26.337-26.143-23.59-31.008-22.169c-16.448,4.802-22.671,28.166-46.84,29.005
				c-20.838,0.724-36.728-15.635-36.728-15.635L407.158,202.553z"/>
		</g>
		<g>
			<path style="fill:#FFFFFF;" d="M410.743,201.798c0.179-0.246,0.42-0.64,1.18-0.294c0.761,0.341,3.041,1.127,2.601,2.254
				c-0.445,1.129-1.35,1.52-2.652,0.763C410.57,203.759,409.711,203.224,410.743,201.798z"/>
		</g>
		<g>
			<path style="fill:#FFFFFF;" d="M416.987,204.39c0.112-0.283,0.241-0.721,1.066-0.581c0.823,0.139,3.227,0.319,3.085,1.522
				c-0.139,1.201-0.917,1.814-2.369,1.408C417.317,206.333,416.353,206.034,416.987,204.39z"/>
		</g>
		<g>
			<path style="fill:#FFFFFF;" d="M424.557,205.032c-0.021-0.298-0.094-0.755,0.708-0.985c0.802-0.23,3.049-1.111,3.444,0.034
				c0.393,1.148-0.045,2.031-1.525,2.296C425.7,206.642,424.696,206.791,424.557,205.032z"/>
		</g>
		<g>
			<path style="fill:#FFFFFF;" d="M430.994,202.964c-0.1-0.286-0.283-0.708,0.436-1.135c0.718-0.425,2.668-1.845,3.339-0.839
				c0.671,1.009,0.472,1.976-0.894,2.611C432.504,204.23,431.573,204.629,430.994,202.964z"/>
		</g>
		<g>
			<path style="fill:#FFFFFF;" d="M436.294,199.072c-0.112-0.278-0.319-0.692,0.373-1.156c0.691-0.469,2.558-1.989,3.286-1.025
				c0.724,0.97,0.582,1.948-0.749,2.653C437.878,200.252,436.968,200.702,436.294,199.072z"/>
		</g>
		<g>
			<path style="fill:#FFFFFF;" d="M441.783,195.125c-0.181-0.241-0.485-0.585,0.065-1.211c0.551-0.626,1.974-2.579,2.92-1.827
				c0.949,0.757,1.057,1.738-0.05,2.76C443.612,195.866,442.848,196.532,441.783,195.125z"/>
		</g>
		<g>
			<path style="fill:#FFFFFF;" d="M446.59,190.805c-0.115-0.278-0.325-0.692,0.367-1.153c0.692-0.467,2.559-1.998,3.29-1.028
				c0.726,0.97,0.581,1.95-0.75,2.653C448.168,191.984,447.259,192.436,446.59,190.805z"/>
		</g>
		<g>
			<path style="fill:#FFFFFF;" d="M452.23,187.12c-0.125-0.278-0.349-0.679,0.325-1.171c0.674-0.493,2.485-2.092,3.245-1.151
				c0.766,0.938,0.658,1.924-0.644,2.682C453.855,188.236,452.965,188.721,452.23,187.12z"/>
		</g>
		<g>
			<path style="fill:#FFFFFF;" d="M457.939,183.66c-0.126-0.275-0.346-0.676,0.325-1.169c0.674-0.493,2.484-2.092,3.245-1.15
				c0.766,0.941,0.66,1.921-0.64,2.679C459.564,184.779,458.674,185.264,457.939,183.66z"/>
		</g>
		<g>
			<path style="fill:#FFFFFF;" d="M464.545,180.467c-0.042-0.299-0.142-0.749,0.645-1.027c0.786-0.278,2.983-1.29,3.44-0.17
				c0.461,1.124,0.078,2.034-1.384,2.382C465.776,182.003,464.786,182.213,464.545,180.467z"/>
		</g>
		<g>
			<path style="fill:#FFFFFF;" d="M471.244,178.538c-0.013-0.304-0.07-0.76,0.737-0.964c0.81-0.21,3.085-1.017,3.441,0.139
				c0.356,1.159-0.107,2.031-1.597,2.247C472.335,180.179,471.328,180.294,471.244,178.538z"/>
		</g>
		<g>
			<path style="fill:#FFFFFF;" d="M479.025,177.657c0.031-0.299,0.047-0.76,0.875-0.838c0.834-0.076,3.206-0.519,3.376,0.681
				c0.173,1.195-0.422,1.987-1.929,1.969C479.842,179.45,478.83,179.408,479.025,177.657z"/>
		</g>
		<g>
			<path style="fill:#FFFFFF;" d="M486.217,178.129c0.12-0.278,0.265-0.713,1.085-0.54c0.815,0.167,3.213,0.44,3.029,1.635
				c-0.188,1.198-0.99,1.777-2.422,1.319C486.474,180.085,485.514,179.749,486.217,178.129z"/>
		</g>
		<g>
			<path style="fill:#FFFFFF;" d="M493.568,180.63c0.173-0.252,0.404-0.645,1.172-0.315c0.766,0.328,3.061,1.075,2.642,2.207
				c-0.424,1.137-1.32,1.546-2.637,0.809C493.433,182.598,492.56,182.077,493.568,180.63z"/>
		</g>
		<g>
			<path style="fill:#FFFFFF;" d="M499.92,184.21c0.209-0.215,0.503-0.572,1.211-0.126c0.702,0.445,2.856,1.541,2.259,2.595
				c-0.592,1.054-1.549,1.316-2.731,0.388C499.474,186.134,498.698,185.481,499.92,184.21z"/>
		</g>
		<g>
			<path style="fill:#FFFFFF;" d="M505.385,188.205c0.235-0.194,0.568-0.506,1.211,0.026c0.642,0.53,2.64,1.893,1.916,2.86
				c-0.727,0.972-1.704,1.111-2.76,0.034C504.698,190.053,504.011,189.306,505.385,188.205z"/>
		</g>
		<g>
			<path style="fill:#FFFFFF;" d="M510.257,192.892c0.258-0.163,0.619-0.443,1.203,0.152c0.585,0.595,2.431,2.155,1.612,3.046
				c-0.823,0.891-1.813,0.928-2.752-0.247C509.385,194.661,508.776,193.848,510.257,192.892z"/>
		</g>
		<g>
			<path style="fill:#FFFFFF;" d="M514.661,198.026c0.272-0.129,0.671-0.359,1.174,0.307c0.503,0.66,2.134,2.445,1.206,3.224
				c-0.928,0.779-1.908,0.689-2.689-0.598C513.57,199.672,513.072,198.789,514.661,198.026z"/>
		</g>
		<g>
			<path style="fill:#FFFFFF;" d="M518.818,204.215c0.262-0.144,0.644-0.398,1.185,0.241c0.542,0.634,2.267,2.325,1.384,3.15
				c-0.884,0.834-1.872,0.797-2.721-0.446C517.816,205.919,517.269,205.064,518.818,204.215z"/>
		</g>
		<g>
			<path style="fill:#FFFFFF;" d="M522.833,209.656c0.283-0.11,0.695-0.309,1.148,0.388c0.456,0.703,1.953,2.601,0.97,3.308
				c-0.98,0.708-1.955,0.549-2.64-0.791C521.628,211.219,521.192,210.301,522.833,209.656z"/>
		</g>
		<g>
			<path style="fill:#FFFFFF;" d="M526.655,215.564c0.249-0.172,0.603-0.461,1.2,0.121c0.603,0.582,2.485,2.097,1.683,3.004
				c-0.797,0.912-1.782,0.976-2.752-0.181C525.821,217.352,525.195,216.555,526.655,215.564z"/>
		</g>
		<g>
			<path style="fill:#FFFFFF;" d="M531.462,220.898c0.221-0.202,0.532-0.538,1.211-0.05c0.677,0.487,2.758,1.714,2.098,2.73
				c-0.661,1.015-1.626,1.217-2.747,0.216C530.901,222.793,530.162,222.094,531.462,220.898z"/>
		</g>
		<g>
			<path style="fill:#FFFFFF;" d="M537.923,224.916c0.16-0.254,0.378-0.66,1.156-0.356c0.778,0.299,3.104,0.96,2.721,2.107
				c-0.377,1.148-1.264,1.594-2.6,0.907C537.857,226.888,536.967,226.399,537.923,224.916z"/>
		</g>
		<g>
			<path style="fill:#FFFFFF;" d="M545.218,226.809c0.064-0.293,0.131-0.749,0.965-0.729c0.833,0.018,3.245-0.149,3.276,1.061
				c0.031,1.214-0.65,1.927-2.144,1.738C545.82,228.686,544.819,228.528,545.218,226.809z"/>
		</g>
		<g>
			<path style="fill:#FFFFFF;" d="M552.528,226.83c-0.019-0.299-0.076-0.755,0.736-0.96c0.808-0.204,3.082-1.017,3.439,0.142
				c0.357,1.159-0.11,2.031-1.6,2.249C553.616,228.479,552.607,228.594,552.528,226.83z"/>
		</g>
		<g>
			<path style="fill:#FFFFFF;" d="M384.679,236.03c0.231-0.197,0.561-0.52,1.214,0c0.653,0.518,2.677,1.837,1.972,2.825
				c-0.705,0.983-1.681,1.143-2.753,0.089C384.034,237.891,383.329,237.162,384.679,236.03z"/>
		</g>
		<g>
			<path style="fill:#FFFFFF;" d="M390.294,239.852c0.209-0.221,0.492-0.582,1.205-0.146c0.713,0.434,2.884,1.494,2.302,2.558
				c-0.577,1.069-1.523,1.342-2.721,0.43C389.882,241.78,389.093,241.141,390.294,239.852z"/>
		</g>
		<g>
			<path style="fill:#FFFFFF;" d="M395.829,243.61c0.171-0.252,0.398-0.652,1.169-0.336c0.771,0.32,3.077,1.033,2.674,2.176
				c-0.403,1.138-1.3,1.563-2.624,0.844C395.722,245.576,394.844,245.07,395.829,243.61z"/>
		</g>
		<g>
			<path style="fill:#FFFFFF;" d="M402.288,246.732c0.151-0.26,0.351-0.674,1.14-0.401c0.789,0.272,3.138,0.844,2.797,2.008
				c-0.335,1.169-1.2,1.641-2.565,1.001C402.293,248.703,401.386,248.25,402.288,246.732z"/>
		</g>
		<g>
			<path style="fill:#FFFFFF;" d="M408.852,248.622c0.12-0.278,0.27-0.711,1.087-0.535c0.815,0.173,3.217,0.454,3.022,1.651
				c-0.191,1.198-0.996,1.772-2.427,1.308C409.101,250.58,408.144,250.239,408.852,248.622z"/>
		</g>
		<g>
			<path style="fill:#FFFFFF;" d="M415.902,249.77c0.078-0.293,0.157-0.749,0.993-0.702c0.831,0.045,3.242-0.047,3.242,1.164
				c-0.005,1.211-0.708,1.902-2.196,1.667C416.455,251.662,415.456,251.474,415.902,249.77z"/>
		</g>
		<g>
			<path style="fill:#FFFFFF;" d="M423.64,249.953c-0.022-0.299-0.089-0.755,0.716-0.98c0.805-0.225,3.059-1.085,3.446,0.063
				c0.383,1.148-0.063,2.028-1.546,2.28C424.771,251.57,423.766,251.712,423.64,249.953z"/>
		</g>
		<g>
			<path style="fill:#FFFFFF;" d="M430.958,248.315c-0.042-0.299-0.147-0.747,0.64-1.03c0.786-0.283,2.972-1.306,3.441-0.188
				c0.464,1.119,0.086,2.028-1.376,2.39C432.2,249.846,431.207,250.059,430.958,248.315z"/>
		</g>
		<g>
			<path style="fill:#FFFFFF;" d="M438.158,245.477c-0.137-0.268-0.375-0.66,0.277-1.18c0.653-0.519,2.393-2.191,3.198-1.281
				c0.799,0.909,0.736,1.897-0.537,2.704C439.827,246.53,438.957,247.049,438.158,245.477z"/>
		</g>
		<g>
			<path style="fill:#FFFFFF;" d="M444.082,240.771c-0.121-0.275-0.341-0.684,0.343-1.166c0.682-0.482,2.512-2.05,3.264-1.102
				c0.75,0.954,0.626,1.938-0.687,2.674C445.689,241.917,444.787,242.386,444.082,240.771z"/>
		</g>
		<g>
			<path style="fill:#FFFFFF;" d="M450.265,236.113c-0.204-0.22-0.542-0.539-0.052-1.211c0.492-0.676,1.725-2.752,2.741-2.091
				c1.012,0.663,1.217,1.63,0.207,2.746C452.152,236.683,451.452,237.416,450.265,236.113z"/>
		</g>
		<g>
			<path style="fill:#FFFFFF;" d="M455.009,230.762c-0.167-0.249-0.458-0.613,0.126-1.206c0.582-0.598,2.103-2.475,3.012-1.672
				c0.91,0.802,0.962,1.79-0.196,2.752C456.792,231.598,455.995,232.222,455.009,230.762z"/>
		</g>
		<g>
			<path style="fill:#FFFFFF;" d="M460.364,225.604c-0.16-0.252-0.433-0.624,0.176-1.195c0.607-0.577,2.199-2.391,3.077-1.552
				c0.875,0.839,0.897,1.829-0.305,2.738C462.118,226.51,461.295,227.105,460.364,225.604z"/>
		</g>
		<g>
			<path style="fill:#FFFFFF;" d="M466.684,221.823c-0.036-0.299-0.136-0.749,0.652-1.022c0.789-0.273,2.986-1.274,3.442-0.151
				c0.453,1.121,0.067,2.034-1.4,2.374C467.91,223.367,466.917,223.571,466.684,221.823z"/>
		</g>
		<g>
			<path style="fill:#FFFFFF;" d="M473.325,220.335c0.064-0.294,0.121-0.755,0.954-0.755c0.839,0.005,3.24-0.215,3.301,0.996
				c0.055,1.211-0.608,1.939-2.105,1.779C473.976,222.195,472.969,222.06,473.325,220.335z"/>
		</g>
		<g>
			<path style="fill:#FFFFFF;" d="M479.605,221.21c0.184-0.241,0.439-0.629,1.186-0.262c0.755,0.372,3.009,1.227,2.531,2.341
				c-0.477,1.113-1.399,1.48-2.673,0.679C479.373,223.165,478.531,222.605,479.605,221.21z"/>
		</g>
		<g>
			<path style="fill:#FFFFFF;" d="M484.648,224.502c0.226-0.199,0.546-0.534,1.214-0.031c0.671,0.503,2.719,1.767,2.047,2.773
				c-0.681,1.001-1.653,1.189-2.752,0.162C484.052,226.379,483.328,225.666,484.648,224.502z"/>
		</g>
		<g>
			<path style="fill:#FFFFFF;" d="M489.262,228.896c0.272-0.132,0.674-0.362,1.175,0.301c0.509,0.669,2.139,2.443,1.216,3.227
				c-0.928,0.781-1.913,0.692-2.694-0.592C488.177,230.541,487.674,229.66,489.262,228.896z"/>
		</g>
		<g>
			<path style="fill:#FFFFFF;" d="M492.182,234.315c0.271-0.134,0.671-0.366,1.175,0.299c0.506,0.666,2.136,2.443,1.211,3.229
				c-0.926,0.775-1.914,0.692-2.689-0.598C491.092,235.959,490.591,235.076,492.182,234.315z"/>
		</g>
		<g>
			<path style="fill:#FFFFFF;" d="M495.291,240.365c0.288-0.084,0.723-0.241,1.103,0.498c0.385,0.75,1.68,2.778,0.631,3.392
				c-1.048,0.605-2.002,0.346-2.545-1.054C493.933,241.794,493.592,240.837,495.291,240.365z"/>
		</g>
		<g>
			<path style="fill:#FFFFFF;" d="M498.054,246.685c0.277-0.112,0.691-0.322,1.153,0.37c0.466,0.697,1.986,2.568,1.014,3.297
				c-0.97,0.719-1.947,0.577-2.647-0.758C496.868,248.26,496.423,247.351,498.054,246.685z"/>
		</g>
		<g>
			<path style="fill:#FFFFFF;" d="M502.029,251.972c0.263-0.152,0.64-0.414,1.195,0.21c0.556,0.623,2.32,2.265,1.46,3.121
				c-0.859,0.847-1.851,0.842-2.729-0.385C501.073,253.696,500.504,252.857,502.029,251.972z"/>
		</g>
		<g>
			<path style="fill:#FFFFFF;" d="M506.692,256.532c0.194-0.23,0.459-0.602,1.192-0.21c0.737,0.401,2.952,1.348,2.436,2.443
				c-0.525,1.09-1.46,1.421-2.7,0.566C506.378,258.478,505.555,257.88,506.692,256.532z"/>
		</g>
		<g>
			<path style="fill:#FFFFFF;" d="M512.506,259.466c0.179-0.244,0.414-0.643,1.175-0.297c0.766,0.344,3.043,1.127,2.605,2.26
				c-0.44,1.122-1.348,1.521-2.647,0.758C512.339,261.429,511.474,260.894,512.506,259.466z"/>
		</g>
		<g>
			<path style="fill:#FFFFFF;" d="M518.823,261.491c0.115-0.28,0.254-0.718,1.072-0.565c0.825,0.154,3.221,0.377,3.063,1.583
				c-0.167,1.195-0.956,1.793-2.396,1.362C519.116,263.44,518.152,263.122,518.823,261.491z"/>
		</g>
		<g>
			<path style="fill:#FFFFFF;" d="M524.778,262.603c0.063-0.296,0.121-0.752,0.954-0.747c0.839,0.008,3.239-0.199,3.298,1.015
				c0.047,1.208-0.622,1.935-2.118,1.764C525.413,264.469,524.409,264.327,524.778,262.603z"/>
		</g>
		<g>
			<path style="fill:#FFFFFF;" d="M530.749,262.603c0.06-0.296,0.121-0.752,0.954-0.747c0.836,0.008,3.24-0.199,3.298,1.015
				c0.047,1.208-0.624,1.935-2.118,1.764C531.384,264.469,530.377,264.327,530.749,262.603z"/>
		</g>
		<g>
			
				<rect x="394.359" y="225.849" transform="matrix(0.5547 -0.8321 0.8321 0.5547 -5.7757 442.247)" style="fill:#FFB829;" width="31.852" height="1.342"/>
		</g>
		<g>
			
				<rect x="424.189" y="219.924" transform="matrix(0.3048 -0.9524 0.9524 0.3048 96.8549 573.8814)" style="fill:#FFB829;" width="34.692" height="1.343"/>
		</g>
		<g>
			
				<rect x="460.412" y="197.711" transform="matrix(0.2204 -0.9754 0.9754 0.2204 175.5693 616.419)" style="fill:#FFB829;" width="25.953" height="1.341"/>
		</g>
		<g>
			
				<rect x="488.837" y="214.668" transform="matrix(0.6101 -0.7923 0.7923 0.6101 25.1997 481.8859)" style="fill:#FFB829;" width="26.799" height="1.341"/>
		</g>
		<g>
			
				<rect x="512.905" y="243.891" transform="matrix(0.6294 -0.7771 0.7771 0.6294 5.2241 500.0769)" style="fill:#FFB829;" width="27.921" height="1.342"/>
		</g>
		<g style="opacity:0.3;">
			<path d="M420.662,247.615c24.169-0.839,30.392-24.203,46.84-29.005c4.864-1.421,21.005-4.168,31.008,22.169
				c10.804,28.452,40.003,18.228,40.003,18.228l9.762-13.326c-43.679-0.87-41.635-36.775-60.056-44.313
				c-20.253-8.288-31.26,17.278-55.144,35.438c-16.466,12.526-37.665-2.061-43.382-12.12l-5.759,7.295
				C383.935,231.98,399.824,248.339,420.662,247.615z"/>
		</g>
	</g>
	<g>
		<g>
			<g>
				<rect x="213.556" y="177.293" style="fill:#FE4040;" width="96.876" height="60.621"/>
			</g>
		</g>
		<g>
			<g>
				<polygon style="fill:#FFB829;" points="256.256,218.642 256.256,198.106 275.036,208.373 				"/>
			</g>
		</g>
		<g>
			<g>
				<rect x="213.556" y="242.998" style="fill:#FF6969;" width="96.876" height="2.973"/>
			</g>
		</g>
		<g>
			<g>
				<path style="fill:#FFB829;" d="M263.522,243.483c0,2.255-1.832,4.085-4.087,4.085c-2.253,0-4.08-1.83-4.08-4.085
					c0-2.255,1.827-4.082,4.08-4.082C261.69,239.401,263.522,241.229,263.522,243.483z"/>
			</g>
		</g>
	</g>
	<g>
		<g>
			<path style="fill:#3A7595;" d="M539.117,344.391c0,2.413-1.956,4.369-4.368,4.369h-89.947c-2.411,0-4.369-1.956-4.369-4.369
				v-50.616c0-2.414,1.958-4.37,4.369-4.37h89.947c2.412,0,4.368,1.956,4.368,4.37V344.391z"/>
		</g>
		<g>
			<rect x="440.433" y="287.947" style="fill:#7AC5EE;" width="98.684" height="16.021"/>
		</g>
		<g>
			<polygon style="fill:#2D647C;" points="440.433,287.947 440.433,303.969 441.084,303.969 453.336,287.947 			"/>
		</g>
		<g>
			<polygon style="fill:#2D647C;" points="519.979,287.947 507.732,303.969 519.739,303.969 531.993,287.947 			"/>
		</g>
		<g>
			<polygon style="fill:#2D647C;" points="467.544,287.947 455.293,303.969 467.303,303.969 479.555,287.947 			"/>
		</g>
		<g>
			<polygon style="fill:#2D647C;" points="493.76,287.947 481.514,303.969 493.522,303.969 505.773,287.947 			"/>
		</g>
		<g>
			<polygon style="fill:#2D647C;" points="539.117,297.211 533.949,303.969 539.117,303.969 			"/>
		</g>
		<g>
			<g>
				<path style="fill:#2D647C;" d="M525.353,244.203l-85.389,28.27c-2.294,0.759-3.531,3.233-2.773,5.522l3.774,11.408l93.688-31.02
					l-3.781-11.406C530.11,244.689,527.643,243.446,525.353,244.203z"/>
			</g>
			<g>
				<polygon style="fill:#7AC5EE;" points="457.814,266.563 450.431,286.27 462.061,282.42 469.442,262.716 				"/>
			</g>
			<g>
				<path style="fill:#7AC5EE;" d="M439.964,272.474c-2.294,0.759-3.531,3.233-2.773,5.522l2.01,6.075l4.854-12.948L439.964,272.474
					z"/>
			</g>
			<g>
				<polygon style="fill:#7AC5EE;" points="483.2,258.159 475.817,277.863 487.451,274.016 494.833,254.306 				"/>
			</g>
			<g>
				<polygon style="fill:#7AC5EE;" points="531.342,248.393 526.598,261.053 534.652,258.385 				"/>
			</g>
			<g>
				<polygon style="fill:#7AC5EE;" points="508.592,249.751 501.209,269.457 512.841,265.607 520.226,245.9 				"/>
			</g>
		</g>
		<g>
			<path style="fill:#2D647C;" d="M530.623,317.49c0,0.668-0.54,1.206-1.205,1.206h-81.327c-0.666,0-1.208-0.538-1.208-1.206l0,0
				c0-0.665,0.542-1.207,1.208-1.207h81.327C530.083,316.283,530.623,316.825,530.623,317.49L530.623,317.49z"/>
		</g>
		<g>
			<path style="fill:#2D647C;" d="M530.623,326.23c0,0.666-0.54,1.208-1.205,1.208h-81.327c-0.666,0-1.208-0.542-1.208-1.208l0,0
				c0-0.666,0.542-1.205,1.208-1.205h81.327C530.083,325.025,530.623,325.565,530.623,326.23L530.623,326.23z"/>
		</g>
		<g>
			<path style="fill:#2D647C;" d="M530.623,335.537c0,0.667-0.54,1.206-1.205,1.206h-81.327c-0.666,0-1.208-0.539-1.208-1.206l0,0
				c0-0.667,0.542-1.207,1.208-1.207h81.327C530.083,334.33,530.623,334.87,530.623,335.537L530.623,335.537z"/>
		</g>
	</g>
	<g>
		<g>
			<g>
				<g>
					<g>
						<path style="fill:#FFA09A;" d="M494.933,331.353c1.088,5.267,3.938,12.15,4.095,15.767c0.03,0.573-0.051,0.785-1.945,1.242
							c-1.887,0.453-0.15,1.621,3.063,1.736c3.215,0.111,2.193-15.238,0.966-22.471
							C500.048,321.301,493.673,325.235,494.933,331.353z"/>
					</g>
				</g>
			</g>
		</g>
		<g>
			<g>
				<g>
					<path style="fill:#FBAA19;" d="M498.216,301.845c0,0-1.46,2.989-2.049,5.844c-1.989,9.688-1.936,10.869-1.966,13.602
						c-0.06,4.654-0.247,13.703,3.417,21.627c0.357,0.765,5.115,0.824,5.293-0.204c1.303-7.531,0.314-8.347,1.105-17.041
						c0.211-2.358,1.257-6.466,2.121-9.143c2.464-7.603,2.069-8.838,0.815-12.686L498.216,301.845z"/>
				</g>
			</g>
		</g>
		<g>
			<g>
				<g>
					<path style="fill:#1D1B3A;" d="M494.201,321.291c0,0-0.079-6.778,1.113-9.067l2.288,0.641
						C497.603,312.864,494.828,317.632,494.201,321.291z"/>
				</g>
			</g>
		</g>
		<g>
			<g>
				<g>
					<g>
						<path style="fill:#FFA09A;" d="M479.598,313.047c0.576,5.351,2.756,12.468,2.572,16.086c-0.029,0.572-0.129,0.773-2.054,1.051
							c-1.926,0.277-0.314,1.6,2.881,2.014c3.185,0.409,3.63-14.967,3.102-22.283C485.639,303.516,478.917,306.843,479.598,313.047z
							"/>
					</g>
				</g>
			</g>
		</g>
		<g>
			<g>
				<g>
					<path style="fill:#FBB433;" d="M494.015,301.023c0,0-10.426-7.611-13.991-2.349c-3.211,4.73,1.367,26.645,1.367,26.645
						s2.479,1.003,4.9-0.369c0,0-0.535-13.358,2.341-13.704c3.246-0.39,9.881,4.75,13.426,2.332
						c5.537-3.772,0.75-12.289,0.75-12.289L494.015,301.023z"/>
				</g>
			</g>
		</g>
		<g>
			<g>
				<g>
					<g>
						<path style="fill:#FFFFFF;" d="M483.165,325.682l0.36-0.038l-0.032-0.328c-2.036-17.935-1.219-22.339-0.554-23.371
							c0.291-0.446,0.62-0.699,0.999-0.767c0.914-0.17,2.1,0.717,3.471,1.735c1.293,0.964,2.759,2.054,4.35,2.499
							c4.06,1.122,5.308-2.279,5.315-2.314l-0.347-0.121c-0.039,0.126-1.147,3.116-4.869,2.085c-1.524-0.429-2.963-1.499-4.228-2.44
							c-1.442-1.07-2.677-2.002-3.757-1.804c-0.489,0.087-0.893,0.391-1.24,0.929c-1.213,1.876-1.042,10.044,0.494,23.612
							L483.165,325.682z"/>
					</g>
				</g>
			</g>
		</g>
		<g>
			<g>
				<g>
					<g>
						<path style="fill:#FFA09A;" d="M492.094,269.709c0,0-2.377-4.806-2.776-3.164c-0.385,1.601,0.547,1.362,1.357,3.852
							L492.094,269.709z"/>
					</g>
				</g>
			</g>
			<g>
				<g>
					<g>
						<path style="fill:#82A816;" d="M508.042,285.964c0.587,0.683,1.483,3.097-0.49,3.522c-3.126,0.681-10.611-3.581-12.237-5.271
							c-3.507-3.639-4.842-14.106-4.842-14.106s0.729-1.153,1.894-0.492l7.159,11.084
							C499.526,280.7,506.022,283.605,508.042,285.964z"/>
					</g>
				</g>
			</g>
		</g>
		<g>
			<g>
				<g>
					<path style="fill:#A0C125;" d="M497.874,283.399c-2.601,1.558-4.286,1.397-6.88,15.751
						c-0.573,3.149,17.117,10.317,17.544,7.145c1.133-8.456,0.067-12.11-1.526-20.02
						C506.584,284.123,503.032,280.309,497.874,283.399z"/>
				</g>
			</g>
		</g>
		<g>
			<g>
				<g>
					<g>
						<path style="fill:#FFA09A;" d="M480.362,271.821c0,0-0.489-4.478-1.48-3.285c-0.984,1.195-0.77,1.8,0.224,4.056
							L480.362,271.821z"/>
					</g>
				</g>
			</g>
			<g>
				<g>
					<g>
						<path style="fill:#82A816;" d="M496.709,285.555c0.608,0.574,2.802,4.28,1.001,4.855c-2.862,0.915-9.634-0.998-13.616-4.413
							c-5.494-4.716-5.212-13.658-5.212-13.658s0.577-1.137,1.725-0.624c0,0,5.453,7.483,7.981,9.263
							C490.51,282.327,494.615,283.535,496.709,285.555z"/>
					</g>
				</g>
			</g>
		</g>
		<g>
			<g>
				<g>
					<path style="fill:#1D1B3A;" d="M501.199,269.658c-2.032,0.047-4.696,1.418-5.117,5.345c-0.42,3.922-0.535,3.988-2.021,5.289
						c-3.804,3.348,2.993,5.407-0.212,8.584c-12.209,12.086,13.794,16.972,13.184,10.379c-0.796-8.586,4.492-4.265,4.111-9.525
						c-0.162-2.088,3.096-4.039-0.596-7.052c-1.221-0.996,1.635-5.36-1.451-6.6C506.015,274.837,509.051,269.477,501.199,269.658z"
						/>
				</g>
			</g>
		</g>
	</g>
	<g>
		<g>
			<path style="fill:#FEAA3A;" d="M132.416,312.178c0,0-1.697,29.786-33.565,30.067c-31.781,0.276-38.309,0.022-38.309,0.022v7.561
				h38.986c0,0,39.819,2.8,40.851-34.599L132.416,312.178z"/>
		</g>
		<g>
			<g>
				<path style="fill:#FEAA3A;" d="M115.018,297.313c0,18.948,15.356,34.308,34.308,34.308c18.947,0,34.305-15.359,34.305-34.308
					c0-18.947-15.357-34.31-34.305-34.31C130.374,263.003,115.018,278.365,115.018,297.313z"/>
			</g>
			<g>
				<path style="fill:#FE4040;" d="M143.191,297.313c0,3.388,2.745,6.133,6.135,6.133c3.384,0,6.132-2.745,6.132-6.133
					c0-3.386-2.748-6.132-6.132-6.132C145.936,291.181,143.191,293.927,143.191,297.313z"/>
			</g>
			<g>
				<path style="fill:#FE4040;" d="M96.811,297.313c0,29,23.515,52.516,52.518,52.516c29,0,52.509-23.516,52.509-52.516
					c0-29.005-23.509-52.516-52.509-52.516C120.325,244.797,96.811,268.308,96.811,297.313z M131.43,284.407
					c0,6.891-5.584,12.475-12.477,12.475c-6.887,0-12.474-5.584-12.474-12.475c0-6.887,5.587-12.477,12.474-12.477
					C125.846,271.931,131.43,277.521,131.43,284.407z M162.051,262.979c0,6.888-5.587,12.477-12.476,12.477
					c-6.885,0-12.465-5.589-12.465-12.477c0-6.888,5.58-12.471,12.465-12.471C156.464,250.508,162.051,256.091,162.051,262.979z
					 M167.221,313.102c0-6.894,5.584-12.48,12.477-12.48c6.885,0,12.471,5.587,12.471,12.48c0,6.888-5.586,12.475-12.471,12.475
					C172.805,325.576,167.221,319.989,167.221,313.102z M167.221,284.407c0-6.891,5.584-12.475,12.477-12.475
					c6.885,0,12.471,5.584,12.471,12.475c0,6.888-5.586,12.475-12.471,12.475C172.805,296.882,167.221,291.295,167.221,284.407z
					 M137.193,331.647c0-6.893,5.586-12.477,12.474-12.477c6.893,0,12.479,5.584,12.479,12.477c0,6.884-5.587,12.468-12.479,12.468
					C142.779,344.115,137.193,338.531,137.193,331.647z M136.536,296.857c0-7.205,5.842-13.049,13.041-13.049
					c7.204,0,13.043,5.844,13.043,13.049c0,7.196-5.839,13.04-13.043,13.04C142.378,309.897,136.536,304.054,136.536,296.857z
					 M107.168,313.47c0-6.884,5.587-12.477,12.479-12.477c6.885,0,12.468,5.593,12.468,12.477c0,6.891-5.583,12.477-12.468,12.477
					C112.755,325.946,107.168,320.36,107.168,313.47z"/>
			</g>
			<g style="opacity:0.3;">
				<path d="M126.586,249.965c-3.255,6.761-5.248,14.239-5.7,22.131c-0.636-0.096-1.276-0.165-1.934-0.165
					c-6.887,0-12.474,5.59-12.474,12.477c0,6.891,5.587,12.475,12.474,12.475c1.925,0,3.735-0.447,5.359-1.224
					c1.142,3.152,2.56,6.171,4.201,9.045c-2.265-2.286-5.397-3.71-8.865-3.71c-6.893,0-12.479,5.593-12.479,12.477
					c0,6.891,5.587,12.477,12.479,12.477c6.885,0,12.468-5.586,12.468-12.477c0-1.502-0.278-2.934-0.764-4.271
					c3.171,4.562,6.972,8.649,11.274,12.148c-3.278,2.251-5.433,6.021-5.433,10.301c0,6.884,5.586,12.468,12.474,12.468
					c6.827,0,12.359-5.479,12.464-12.276c5.578,1.745,11.507,2.689,17.656,2.689c2.371,0,4.703-0.159,6.996-0.426
					c-9.525,9.694-22.787,15.726-37.455,15.726c-29.003,0-52.518-23.516-52.518-52.516
					C96.811,276.459,108.973,258.44,126.586,249.965z"/>
			</g>
			<g>
				<path style="fill:#FE4040;" d="M128.513,304.703c1.244,1.266,2.215,2.8,2.839,4.496
					C130.336,307.748,129.392,306.25,128.513,304.703z"/>
			</g>
		</g>
	</g>
	<g>
		<g>
			<rect x="346.878" y="173.306" style="fill:#3A7595;" width="73.398" height="176.22"/>
		</g>
		<g>
			<rect x="357.002" y="173.306" style="fill:#7AC5EE;" width="53.15" height="176.22"/>
		</g>
		<g>
			<path style="fill:#FFFFFF;" d="M415.565,177.119c0.448,0.029,1.126,0.017,1.297,1.236c0.177,1.218,1,4.693-0.755,5.03
				c-1.76,0.34-2.969-0.483-3.051-2.703C412.98,178.458,412.969,176.958,415.565,177.119z"/>
		</g>
		<g>
			<path style="fill:#FFFFFF;" d="M415.565,187.244c0.448,0.026,1.126,0.015,1.297,1.235c0.177,1.218,1,4.693-0.755,5.03
				c-1.76,0.34-2.969-0.481-3.051-2.699C412.98,188.582,412.969,187.082,415.565,187.244z"/>
		</g>
		<g>
			<path style="fill:#FFFFFF;" d="M415.565,197.368c0.448,0.026,1.126,0.015,1.297,1.235c0.177,1.221,1,4.69-0.755,5.029
				c-1.76,0.342-2.969-0.477-3.051-2.701C412.98,198.706,412.969,197.206,415.565,197.368z"/>
		</g>
		<g>
			<path style="fill:#FFFFFF;" d="M415.565,207.492c0.448,0.026,1.126,0.016,1.297,1.235c0.177,1.218,1,4.693-0.755,5.029
				c-1.76,0.342-2.969-0.48-3.051-2.7C412.98,208.832,412.969,207.33,415.565,207.492z"/>
		</g>
		<g>
			<path style="fill:#FFFFFF;" d="M415.565,217.616c0.448,0.026,1.126,0.017,1.297,1.235c0.177,1.221,1,4.692-0.755,5.028
				c-1.76,0.342-2.969-0.479-3.051-2.697C412.98,218.956,412.969,217.454,415.565,217.616z"/>
		</g>
		<g>
			<path style="fill:#FFFFFF;" d="M415.565,227.744c0.448,0.025,1.126,0.014,1.297,1.229c0.177,1.22,1,4.695-0.755,5.03
				c-1.76,0.342-2.969-0.477-3.051-2.697C412.98,229.08,412.969,227.581,415.565,227.744z"/>
		</g>
		<g>
			<path style="fill:#FFFFFF;" d="M415.565,237.866c0.448,0.027,1.126,0.013,1.297,1.235c0.177,1.222,1,4.691-0.755,5.026
				c-1.76,0.342-2.969-0.479-3.051-2.697C412.98,239.204,412.969,237.702,415.565,237.866z"/>
		</g>
		<g>
			<path style="fill:#FFFFFF;" d="M415.565,247.99c0.448,0.027,1.126,0.016,1.297,1.235c0.177,1.22,1,4.691-0.755,5.025
				c-1.76,0.346-2.969-0.477-3.051-2.697C412.98,249.328,412.969,247.826,415.565,247.99z"/>
		</g>
		<g>
			<path style="fill:#FFFFFF;" d="M415.565,187.244c0.448,0.026,1.126,0.015,1.297,1.235c0.177,1.218,1,4.693-0.755,5.03
				c-1.76,0.34-2.969-0.481-3.051-2.699C412.98,188.582,412.969,187.082,415.565,187.244z"/>
		</g>
		<g>
			<path style="fill:#FFFFFF;" d="M415.565,197.368c0.448,0.026,1.126,0.015,1.297,1.235c0.177,1.221,1,4.69-0.755,5.029
				c-1.76,0.342-2.969-0.477-3.051-2.701C412.98,198.706,412.969,197.206,415.565,197.368z"/>
		</g>
		<g>
			<path style="fill:#FFFFFF;" d="M415.565,207.492c0.448,0.026,1.126,0.016,1.297,1.235c0.177,1.218,1,4.693-0.755,5.029
				c-1.76,0.342-2.969-0.48-3.051-2.7C412.98,208.832,412.969,207.33,415.565,207.492z"/>
		</g>
		<g>
			<path style="fill:#FFFFFF;" d="M415.565,217.616c0.448,0.026,1.126,0.017,1.297,1.235c0.177,1.221,1,4.692-0.755,5.028
				c-1.76,0.342-2.969-0.479-3.051-2.697C412.98,218.956,412.969,217.454,415.565,217.616z"/>
		</g>
		<g>
			<path style="fill:#FFFFFF;" d="M415.565,227.744c0.448,0.025,1.126,0.014,1.297,1.229c0.177,1.22,1,4.695-0.755,5.03
				c-1.76,0.342-2.969-0.477-3.051-2.697C412.98,229.08,412.969,227.581,415.565,227.744z"/>
		</g>
		<g>
			<path style="fill:#FFFFFF;" d="M415.565,237.866c0.448,0.027,1.126,0.013,1.297,1.235c0.177,1.222,1,4.691-0.755,5.026
				c-1.76,0.342-2.969-0.479-3.051-2.697C412.98,239.204,412.969,237.702,415.565,237.866z"/>
		</g>
		<g>
			<path style="fill:#FFFFFF;" d="M415.565,247.99c0.448,0.027,1.126,0.016,1.297,1.235c0.177,1.22,1,4.691-0.755,5.025
				c-1.76,0.346-2.969-0.477-3.051-2.697C412.98,249.328,412.969,247.826,415.565,247.99z"/>
		</g>
		<g>
			<path style="fill:#FFFFFF;" d="M415.565,259.357c0.448,0.03,1.126,0.015,1.297,1.234c0.177,1.223,1,4.694-0.755,5.031
				c-1.76,0.341-2.969-0.482-3.051-2.701C412.98,260.695,412.969,259.199,415.565,259.357z"/>
		</g>
		<g>
			<path style="fill:#FFFFFF;" d="M415.565,269.481c0.448,0.03,1.126,0.018,1.297,1.237c0.177,1.22,1,4.689-0.755,5.029
				c-1.76,0.343-2.969-0.483-3.051-2.704C412.98,270.819,412.969,269.32,415.565,269.481z"/>
		</g>
		<g>
			<path style="fill:#FFFFFF;" d="M415.565,279.605c0.448,0.03,1.126,0.018,1.297,1.237c0.177,1.22,1,4.691-0.755,5.029
				c-1.76,0.343-2.969-0.483-3.051-2.704C412.98,280.943,412.969,279.447,415.565,279.605z"/>
		</g>
		<g>
			<path style="fill:#FFFFFF;" d="M415.565,289.729c0.448,0.03,1.126,0.018,1.297,1.237c0.177,1.22,1,4.692-0.755,5.029
				c-1.76,0.343-2.969-0.483-3.051-2.703C412.98,291.066,412.969,289.571,415.565,289.729z"/>
		</g>
		<g>
			<path style="fill:#FFFFFF;" d="M415.565,299.859c0.448,0.024,1.126,0.013,1.297,1.23c0.177,1.221,1,4.694-0.755,5.03
				c-1.76,0.342-2.969-0.483-3.051-2.703C412.98,301.193,412.969,299.695,415.565,299.859z"/>
		</g>
		<g>
			<path style="fill:#FFFFFF;" d="M415.565,309.98c0.448,0.027,1.126,0.016,1.297,1.233c0.177,1.22,1,4.691-0.755,5.03
				c-1.76,0.342-2.969-0.482-3.051-2.7C412.98,311.317,412.969,309.819,415.565,309.98z"/>
		</g>
		<g>
			<path style="fill:#FFFFFF;" d="M415.565,320.104c0.448,0.027,1.126,0.016,1.297,1.233c0.177,1.22,1,4.695-0.755,5.03
				c-1.76,0.342-2.969-0.482-3.051-2.7C412.98,321.444,412.969,319.944,415.565,320.104z"/>
		</g>
		<g>
			<path style="fill:#FFFFFF;" d="M415.565,330.384c0.448,0.03,1.126,0.019,1.297,1.238c0.177,1.22,1,4.694-0.755,5.028
				c-1.76,0.344-2.969-0.482-3.051-2.697C412.98,331.728,412.969,330.226,415.565,330.384z"/>
		</g>
		<g>
			<path style="fill:#FFFFFF;" d="M415.565,340.511c0.448,0.027,1.126,0.016,1.297,1.235c0.177,1.22,1,4.691-0.755,5.028
				c-1.76,0.344-2.969-0.48-3.051-2.697C412.98,341.85,412.969,340.351,415.565,340.511z"/>
		</g>
		<g>
			<path style="fill:#FFFFFF;" d="M352.29,177.119c0.447,0.029,1.124,0.017,1.294,1.236c0.178,1.218,0.997,4.693-0.759,5.03
				c-1.756,0.34-2.962-0.483-3.044-2.703C349.698,178.458,349.688,176.958,352.29,177.119z"/>
		</g>
		<g>
			<path style="fill:#FFFFFF;" d="M352.29,187.244c0.447,0.026,1.124,0.015,1.294,1.235c0.178,1.218,0.997,4.693-0.759,5.03
				c-1.756,0.34-2.962-0.481-3.044-2.699C349.698,188.582,349.688,187.082,352.29,187.244z"/>
		</g>
		<g>
			<path style="fill:#FFFFFF;" d="M352.29,197.368c0.447,0.026,1.124,0.015,1.294,1.235c0.178,1.221,0.997,4.69-0.759,5.029
				c-1.756,0.342-2.962-0.477-3.044-2.701C349.698,198.706,349.688,197.206,352.29,197.368z"/>
		</g>
		<g>
			<path style="fill:#FFFFFF;" d="M352.29,207.492c0.447,0.026,1.124,0.016,1.294,1.235c0.178,1.218,0.997,4.693-0.759,5.029
				c-1.756,0.342-2.962-0.48-3.044-2.7C349.698,208.832,349.688,207.33,352.29,207.492z"/>
		</g>
		<g>
			<path style="fill:#FFFFFF;" d="M352.29,217.616c0.447,0.026,1.124,0.017,1.294,1.235c0.178,1.221,0.997,4.692-0.759,5.028
				c-1.756,0.342-2.962-0.479-3.044-2.697C349.698,218.956,349.688,217.454,352.29,217.616z"/>
		</g>
		<g>
			<path style="fill:#FFFFFF;" d="M352.29,227.744c0.447,0.025,1.124,0.014,1.294,1.229c0.178,1.22,0.997,4.695-0.759,5.03
				c-1.756,0.342-2.962-0.477-3.044-2.697C349.698,229.08,349.688,227.581,352.29,227.744z"/>
		</g>
		<g>
			<path style="fill:#FFFFFF;" d="M352.29,237.866c0.447,0.027,1.124,0.013,1.294,1.235c0.178,1.222,0.997,4.691-0.759,5.026
				c-1.756,0.342-2.962-0.479-3.044-2.697C349.698,239.204,349.688,237.702,352.29,237.866z"/>
		</g>
		<g>
			<path style="fill:#FFFFFF;" d="M352.29,247.99c0.447,0.027,1.124,0.016,1.294,1.235c0.178,1.22,0.997,4.691-0.759,5.025
				c-1.756,0.346-2.962-0.477-3.044-2.697C349.698,249.328,349.688,247.826,352.29,247.99z"/>
		</g>
		<g>
			<path style="fill:#FFFFFF;" d="M352.29,187.244c0.447,0.026,1.124,0.015,1.294,1.235c0.178,1.218,0.997,4.693-0.759,5.03
				c-1.756,0.34-2.962-0.481-3.044-2.699C349.698,188.582,349.688,187.082,352.29,187.244z"/>
		</g>
		<g>
			<path style="fill:#FFFFFF;" d="M352.29,197.368c0.447,0.026,1.124,0.015,1.294,1.235c0.178,1.221,0.997,4.69-0.759,5.029
				c-1.756,0.342-2.962-0.477-3.044-2.701C349.698,198.706,349.688,197.206,352.29,197.368z"/>
		</g>
		<g>
			<path style="fill:#FFFFFF;" d="M352.29,207.492c0.447,0.026,1.124,0.016,1.294,1.235c0.178,1.218,0.997,4.693-0.759,5.029
				c-1.756,0.342-2.962-0.48-3.044-2.7C349.698,208.832,349.688,207.33,352.29,207.492z"/>
		</g>
		<g>
			<path style="fill:#FFFFFF;" d="M352.29,217.616c0.447,0.026,1.124,0.017,1.294,1.235c0.178,1.221,0.997,4.692-0.759,5.028
				c-1.756,0.342-2.962-0.479-3.044-2.697C349.698,218.956,349.688,217.454,352.29,217.616z"/>
		</g>
		<g>
			<path style="fill:#FFFFFF;" d="M352.29,227.744c0.447,0.025,1.124,0.014,1.294,1.229c0.178,1.22,0.997,4.695-0.759,5.03
				c-1.756,0.342-2.962-0.477-3.044-2.697C349.698,229.08,349.688,227.581,352.29,227.744z"/>
		</g>
		<g>
			<path style="fill:#FFFFFF;" d="M352.29,237.866c0.447,0.027,1.124,0.013,1.294,1.235c0.178,1.222,0.997,4.691-0.759,5.026
				c-1.756,0.342-2.962-0.479-3.044-2.697C349.698,239.204,349.688,237.702,352.29,237.866z"/>
		</g>
		<g>
			<path style="fill:#FFFFFF;" d="M352.29,247.99c0.447,0.027,1.124,0.016,1.294,1.235c0.178,1.22,0.997,4.691-0.759,5.025
				c-1.756,0.346-2.962-0.477-3.044-2.697C349.698,249.328,349.688,247.826,352.29,247.99z"/>
		</g>
		<g>
			<path style="fill:#FFFFFF;" d="M352.29,259.357c0.447,0.03,1.124,0.015,1.294,1.234c0.178,1.223,0.997,4.694-0.759,5.031
				c-1.756,0.341-2.962-0.482-3.044-2.701C349.698,260.695,349.688,259.199,352.29,259.357z"/>
		</g>
		<g>
			<path style="fill:#FFFFFF;" d="M352.29,269.481c0.447,0.03,1.124,0.018,1.294,1.237c0.178,1.22,0.997,4.689-0.759,5.029
				c-1.756,0.343-2.962-0.483-3.044-2.704C349.698,270.819,349.688,269.32,352.29,269.481z"/>
		</g>
		<g>
			<path style="fill:#FFFFFF;" d="M352.29,279.605c0.447,0.03,1.124,0.018,1.294,1.237c0.178,1.22,0.997,4.691-0.759,5.029
				c-1.756,0.343-2.962-0.483-3.044-2.704C349.698,280.943,349.688,279.447,352.29,279.605z"/>
		</g>
		<g>
			<path style="fill:#FFFFFF;" d="M352.29,289.729c0.447,0.03,1.124,0.018,1.294,1.237c0.178,1.22,0.997,4.692-0.759,5.029
				c-1.756,0.343-2.962-0.483-3.044-2.703C349.698,291.066,349.688,289.571,352.29,289.729z"/>
		</g>
		<g>
			<path style="fill:#FFFFFF;" d="M352.29,299.859c0.447,0.024,1.124,0.013,1.294,1.23c0.178,1.221,0.997,4.694-0.759,5.03
				c-1.756,0.342-2.962-0.483-3.044-2.703C349.698,301.193,349.688,299.695,352.29,299.859z"/>
		</g>
		<g>
			<path style="fill:#FFFFFF;" d="M352.29,309.98c0.447,0.027,1.124,0.016,1.294,1.233c0.178,1.22,0.997,4.691-0.759,5.03
				c-1.756,0.342-2.962-0.482-3.044-2.7C349.698,311.317,349.688,309.819,352.29,309.98z"/>
		</g>
		<g>
			<path style="fill:#FFFFFF;" d="M352.29,320.104c0.447,0.027,1.124,0.016,1.294,1.233c0.178,1.22,0.997,4.695-0.759,5.03
				c-1.756,0.342-2.962-0.482-3.044-2.7C349.698,321.444,349.688,319.944,352.29,320.104z"/>
		</g>
		<g>
			<path style="fill:#FFFFFF;" d="M352.29,330.384c0.447,0.03,1.124,0.019,1.294,1.238c0.178,1.22,0.997,4.694-0.759,5.028
				c-1.756,0.344-2.962-0.482-3.044-2.697C349.698,331.728,349.688,330.226,352.29,330.384z"/>
		</g>
		<g>
			<path style="fill:#FFFFFF;" d="M352.29,340.511c0.447,0.027,1.124,0.016,1.294,1.235c0.178,1.22,0.997,4.691-0.759,5.028
				c-1.756,0.344-2.962-0.48-3.044-2.697C349.698,341.85,349.688,340.351,352.29,340.511z"/>
		</g>
		<g>
			<g>
				<path style="fill:#FFFFFF;" d="M383.58,215.416c-8.822,0-16.002-7.175-16.002-15.996c0-8.818,7.18-15.996,16.002-15.996
					c8.819,0,15.996,7.178,15.996,15.996C399.576,208.241,392.4,215.416,383.58,215.416z M383.58,184.179
					c-8.408,0-15.248,6.837-15.248,15.241c0,8.405,6.84,15.242,15.248,15.242c8.405,0,15.242-6.837,15.242-15.242
					C398.822,191.017,391.985,184.179,383.58,184.179z"/>
			</g>
			<g>
				<g>
					<path style="fill:#FFFFFF;" d="M382.614,194.332h-0.047l-2.656,1.431l-0.395-1.569l3.328-1.781h1.756v15.236h-1.985V194.332z"
						/>
				</g>
			</g>
			<g>
				<path style="fill:#FFFFFF;" d="M383.58,256.844c-8.822,0-16.002-7.174-16.002-15.991c0-8.818,7.18-15.996,16.002-15.996
					c8.819,0,15.996,7.178,15.996,15.996C399.576,249.67,392.4,256.844,383.58,256.844z M383.58,225.611
					c-8.408,0-15.248,6.838-15.248,15.241c0,8.401,6.84,15.236,15.248,15.236c8.405,0,15.242-6.835,15.242-15.236
					C398.822,232.449,391.985,225.611,383.58,225.611z"/>
			</g>
			<g>
				<g>
					<path style="fill:#FFFFFF;" d="M378.132,249.075v-1.264l1.621-1.572c3.885-3.701,5.641-5.673,5.671-7.972
						c0-1.543-0.753-2.974-3.028-2.974c-1.378,0-2.532,0.704-3.233,1.291l-0.654-1.455c1.056-0.891,2.55-1.547,4.313-1.547
						c3.28,0,4.664,2.253,4.664,4.429c0,2.814-2.039,5.085-5.254,8.184l-1.214,1.121v0.052h6.844v1.707H378.132z"/>
				</g>
			</g>
			<g>
				<path style="fill:#FFFFFF;" d="M383.58,297.663c-8.819,0-15.996-7.178-15.996-15.995c0-8.818,7.177-15.993,15.996-15.993
					c8.819,0,15.996,7.175,15.996,15.993C399.576,290.485,392.4,297.663,383.58,297.663z M383.58,266.429
					c-8.405,0-15.242,6.836-15.242,15.239c0,8.404,6.837,15.242,15.242,15.242s15.242-6.838,15.242-15.242
					C398.822,273.265,391.985,266.429,383.58,266.429z"/>
			</g>
			<g>
				<g>
					<path style="fill:#FFFFFF;" d="M378.621,287.527c0.588,0.377,1.942,0.96,3.38,0.96c2.645,0,3.469-1.685,3.445-2.949
						c-0.022-2.136-1.948-3.05-3.939-3.05h-1.148v-1.551h1.148c1.502,0,3.397-0.772,3.397-2.574c0-1.219-0.771-2.297-2.673-2.297
						c-1.214,0-2.385,0.536-3.045,1.007l-0.542-1.502c0.802-0.583,2.345-1.172,3.988-1.172c3.004,0,4.357,1.785,4.357,3.634
						c0,1.572-0.938,2.904-2.809,3.586v0.049c1.871,0.377,3.397,1.781,3.397,3.912c0,2.439-1.896,4.574-5.554,4.574
						c-1.714,0-3.216-0.542-3.965-1.031L378.621,287.527z"/>
				</g>
			</g>
			<g>
				<path style="fill:#FFFFFF;" d="M383.58,338.835c-8.822,0-16.002-7.178-16.002-15.996c0-8.818,7.18-15.994,16.002-15.994
					c8.819,0,15.996,7.176,15.996,15.994C399.576,331.657,392.4,338.835,383.58,338.835z M383.58,307.6
					c-8.408,0-15.248,6.834-15.248,15.239c0,8.403,6.84,15.241,15.248,15.241c8.405,0,15.242-6.838,15.242-15.241
					C398.822,314.434,391.985,307.6,383.58,307.6z"/>
			</g>
			<g>
				<g>
					<path style="fill:#FFFFFF;" d="M384.51,331.065v-4.15h-7.077v-1.359l6.795-9.729h2.227v9.473h2.132v1.616h-2.132v4.15H384.51z
						 M384.51,325.299v-5.085c0-0.802,0.024-1.596,0.066-2.39h-0.066c-0.471,0.888-0.848,1.543-1.266,2.247l-3.728,5.181v0.047
						H384.51z"/>
				</g>
			</g>
			<g>
				<path style="fill:#FFFFFF;" d="M406.226,259.776h-45.29v-37.333h45.29V259.776z M361.689,259.022h43.783v-35.826h-43.783
					V259.022z"/>
			</g>
			<g>
				<path style="fill:#FFFFFF;" d="M406.226,300.337h-45.29v-37.336h45.29V300.337z M361.689,299.583h43.783v-35.827h-43.783
					V299.583z"/>
			</g>
			<g>
				<path style="fill:#FFFFFF;" d="M406.226,340.894h-45.29V303.56h45.29V340.894z M361.689,340.141h43.783v-35.828h-43.783V340.141
					z"/>
			</g>
			<g>
				<path style="fill:#FFFFFF;" d="M406.226,218.091h-45.29v-37.333h45.29V218.091z M361.689,217.337h43.783v-35.826h-43.783
					V217.337z"/>
			</g>
			<g>
				<rect x="383.203" y="217.714" style="fill:#FFFFFF;" width="0.754" height="5.106"/>
			</g>
			<g>
				<rect x="383.203" y="259.355" style="fill:#FFFFFF;" width="0.754" height="4.023"/>
			</g>
			<g>
				<rect x="383.203" y="299.919" style="fill:#FFFFFF;" width="0.754" height="4.018"/>
			</g>
			<g>
				<rect x="399.199" y="199.045" style="fill:#FFFFFF;" width="6.649" height="0.754"/>
			</g>
			<g>
				<rect x="361.023" y="199.045" style="fill:#FFFFFF;" width="6.649" height="0.754"/>
			</g>
			<g>
				<rect x="399.199" y="241.992" style="fill:#FFFFFF;" width="6.649" height="0.755"/>
			</g>
			<g>
				<rect x="361.023" y="241.992" style="fill:#FFFFFF;" width="6.649" height="0.755"/>
			</g>
			<g>
				<rect x="399.199" y="282.552" style="fill:#FFFFFF;" width="6.649" height="0.753"/>
			</g>
			<g>
				<rect x="361.023" y="282.552" style="fill:#FFFFFF;" width="6.649" height="0.753"/>
			</g>
			<g>
				<rect x="399.199" y="325.495" style="fill:#FFFFFF;" width="6.649" height="0.753"/>
			</g>
			<g>
				<rect x="361.023" y="325.495" style="fill:#FFFFFF;" width="6.649" height="0.753"/>
			</g>
		</g>
		<g style="opacity:0.3;">
			<rect x="383.58" y="173.306" width="26.572" height="176.22"/>
		</g>
	</g>
	<g>
		<g>
			<g>
				<g>
					<rect x="318.813" y="314.474" style="fill:#3A7595;" width="2.265" height="34.628"/>
				</g>
			</g>
			<g>
				<g>
					<path style="fill:#387BFF;" d="M306.536,280.309h18.982c2.969,0,5.378,2.585,5.378,5.774v28.391h-29.734v-28.391
						C301.162,282.894,303.571,280.309,306.536,280.309z"/>
				</g>
			</g>
			<g>
				<g>
					<path style="fill:#48A2E5;" d="M301.162,315.049c0,1.173,0.884,2.121,1.969,2.121h41.415c1.084,0,1.97-0.948,1.97-2.121l0,0
						c0-1.16-0.886-2.104-1.97-2.104h-41.415C302.046,312.944,301.162,313.889,301.162,315.049L301.162,315.049z"/>
				</g>
			</g>
			<g>
				<g>
					<rect x="307.292" y="347.945" style="fill:#3A7595;" width="26.154" height="2.697"/>
				</g>
			</g>
		</g>
		<g>
			<g>
				<g>
					<g>
						<g>
							<path style="fill:#FFA09A;" d="M334.879,315.053c0.612,7.735,3.533,23.661,6.822,22.573c3.277-1.077,4.77-2.793,2.705-2.69
								c-2.069,0.108-2.217-0.084-2.329-0.669c-0.772-3.732,0.384-11.591,0.137-17.281
								C341.941,310.388,334.343,308.299,334.879,315.053z"/>
						</g>
					</g>
				</g>
				<g>
					<g>
						<path style="fill:#FE4040;" d="M323.414,300.772c0,0,11.985-4.566,16.574,0.18c4.118,4.274,3.478,26.93,3.478,26.93
							s-2.958,2.79-6.879,2.229c0,0-1.173-14.185-4.866-16.303c-2.576-1.48-8.25,2.009-11.864-0.572
							c-8.564-6.149-2.085-9.41-2.085-9.41L323.414,300.772z"/>
					</g>
				</g>
			</g>
			<g>
				<g>
					<g>
						<g>
							<path style="fill:#FFA09A;" d="M315.936,320.478c-3.905,6.703-10.564,21.456-7.247,22.434
								c3.314,0.983,5.519,0.419,3.758-0.669c-1.768-1.084-1.768-1.324-1.533-1.876c1.493-3.51,6.915-9.313,9.952-14.126
								C324.395,320.659,319.337,314.613,315.936,320.478z"/>
						</g>
					</g>
				</g>
				<g>
					<g>
						<path style="fill:#FE4040;" d="M314.639,302.204c0,0,12.141,3.126,13.521,9.58c2.036,9.507-12.469,24.121-12.469,24.121
							s-4.018,0.611-6.931-2.081c0,0,7.11-12.328,5.286-16.17c-1.272-2.682-7.928-3.05-9.428-7.227
							c-3.537-9.928,3.642-8.924,3.642-8.924L314.639,302.204z"/>
					</g>
				</g>
			</g>
			<g>
				<g>
					<path style="fill:#1D1B3A;" d="M324.354,306.662c0,0-5.482,5.242-20.384,1.593c0,0-0.796-1.737-0.332-4.214
						C303.639,304.041,310.317,308.202,324.354,306.662z"/>
				</g>
			</g>
			<g>
				<g>
					<path style="fill:#E2E4EB;" d="M310.89,335.365c0.116-0.08,2.77-1.961,6.87-10.956c3.334-7.304-0.567-9.313-4.018-11.084
						c-0.992-0.513-1.929-0.997-2.725-1.59c-3.474-2.605-1.881-5.39-1.865-5.414l-0.479-0.283c-0.013,0.031-1.857,3.237,2.013,6.143
						c0.832,0.62,1.837,1.136,2.805,1.636c3.538,1.82,6.88,3.546,3.771,10.36c-4.022,8.807-6.651,10.708-6.68,10.729L310.89,335.365
						z"/>
				</g>
			</g>
			<g>
				<g>
					<path style="fill:#FFA09A;" d="M322.046,285.41c-0.056-0.972,1.637-2.713,4.31-3.309c3.589-0.784,3.79,14.957,7.522,11.536
						c3.737-3.446,1.937-12.744,1.725-15.046c-0.224-2.309-1.384-3.124-1.364-4.485c0.016-1.349,1.628-1.253,2.861,2.349
						c0.592,1.733,5.474,23.377-0.028,25.653C329.641,305.197,322.386,291.124,322.046,285.41z"/>
				</g>
			</g>
			<g>
				<g>
					<path style="fill:#82A816;" d="M322.842,280.309c0,0-3.929,1.469-1.917,7.382c2.018,5.915,3.71,8.208,3.71,8.208
						s4.09-0.124,8.967-4.274C333.602,291.624,328.088,277.464,322.842,280.309z"/>
				</g>
			</g>
			<g>
				<g>
					<path style="fill:#A0C125;" d="M325.767,305.518c3.426-4.401,5.406-11.268,5.614-16.614c0.269-7.419-6.267-9.41-10.424-9.859
						c-4.165-0.443-10.96-1.336-10.8,7.915c0.108,6.454-2.261,9.795-5.603,15.209l0,0c-0.096,0.137-0.188,0.261-0.275,0.4
						c0-0.012-0.013-0.02-0.013-0.02c0.005,0.009,0.013,0.009,0.013,0.02C299.605,308.175,321.886,310.508,325.767,305.518z"/>
				</g>
			</g>
			<g>
				<g>
					<g>
						<path style="fill:#FF8998;" d="M324.026,274.762c0,0,0.452,3.441-2.161,4.379c-2.696,0.948,4.306,8.09,4.654,6.27
							c0.448-2.345-0.272-4.057,1.648-6.302L324.026,274.762z"/>
					</g>
				</g>
				<g>
					<g>
						<path style="fill:#FFA09A;" d="M330.608,270.577c1.358,2.437,0.89,11.072-1.691,12.191c-1.13,0.48-4.482-1.536-5.659-5.776
							c-0.496-1.726-0.8-4.803,1.521-7.055C325.827,268.917,329.04,267.764,330.608,270.577z"/>
					</g>
				</g>
				<g>
					<g>
						<path style="fill:#1D1B3A;" d="M332.27,272.169c0.101,1.138-0.089,1.329-3.253,0.829c-3.153-0.491-3.613-0.86-3.533-0.044
							c0.233,2.397-1.781,1.305-1.477,4.166c0.291,2.868-1.75,0.535-2.21-1.881c-0.08-0.481-0.715-2.91,1.754-5.571
							C326.416,266.553,331.861,267.996,332.27,272.169z"/>
					</g>
				</g>
			</g>
			<g>
				<g>
					<path style="fill:#FFA09A;" d="M312.158,284.065c0.344-0.899,2.589-1.816,5.278-1.279c3.601,0.728-2.573,15.217,2.232,13.593
						c4.802-1.646,6.902-10.881,7.639-13.076c0.728-2.201-0.008-3.422,0.564-4.654c0.56-1.221,1.992-0.488,1.665,3.309
						c-0.148,1.82-6.427,24.35-12.381,24.222C309.112,306.007,310.157,289.436,312.158,284.065z"/>
				</g>
			</g>
			<g>
				<g>
					<path style="fill:#82A816;" d="M315.716,280.145c0,0-4.158-0.568-5.187,5.586c-1.036,6.162-0.645,8.983-0.645,8.983
						s3.662,1.832,9.925,0.497C319.81,295.211,321.678,280.125,315.716,280.145z"/>
				</g>
			</g>
		</g>
		<g>
			<g>
				<g>
					<rect x="307.788" y="304.558" style="fill:#FBAA19;" width="46.642" height="2.696"/>
				</g>
			</g>
			<g>
				<g>
					<polygon style="fill:#FEAA3A;" points="325.955,307.242 359.159,307.242 364.049,283.614 332.51,283.614 					"/>
				</g>
			</g>
		</g>
		<g>
			<g>
				<g>
					<g>
						<rect x="278.81" y="307.01" style="fill:#3A7595;" width="93.255" height="2.851"/>
					</g>
				</g>
			</g>
			<g>
				<g>
					<polygon style="fill:#3A7595;" points="371.027,350.982 374.525,350.982 361.316,307.303 357.807,307.987 					"/>
				</g>
			</g>
			<g>
				<g>
					<polygon style="fill:#3A7595;" points="277.277,351.026 281.059,351.026 293.651,307.911 290.13,307.259 					"/>
				</g>
			</g>
		</g>
	</g>
	<g>
		<g>
			<g>
				<g>
					
						<rect x="38.108" y="208.241" transform="matrix(0.9273 -0.3743 0.3743 0.9273 -83.0016 42.9567)" style="fill:#FEAA3A;" width="61.989" height="53.894"/>
				</g>
			</g>
			<g>
				<g>
					
						<rect x="46.68" y="230.076" transform="matrix(0.9273 -0.3744 0.3744 0.9273 -85.848 45.1019)" style="fill:#F5F9FC;" width="52.949" height="26.843"/>
				</g>
			</g>
			<g>
				<g>
					<path style="fill:#F5F9FC;" d="M54.402,225.228c1.65,4.076-0.318,8.72-4.4,10.365c-4.081,1.645-8.72-0.323-10.365-4.401
						c-1.65-4.08,0.323-8.72,4.4-10.365C48.119,219.177,52.763,221.15,54.402,225.228z"/>
				</g>
			</g>
			<g>
				<g>
					
						<rect x="55.911" y="215.714" transform="matrix(0.9272 -0.3745 0.3745 0.9272 -75.9221 43.0356)" style="fill:#F5F9FC;" width="33.719" height="2.307"/>
				</g>
			</g>
			<g>
				<g>
					
						<rect x="54.172" y="211.4" transform="matrix(0.9273 -0.3743 0.3743 0.9273 -74.3891 42.0333)" style="fill:#F5F9FC;" width="33.719" height="2.303"/>
				</g>
			</g>
			<g>
				<g>
					
						<rect x="57.651" y="220.03" transform="matrix(0.9273 -0.3744 0.3744 0.9273 -77.3928 43.9856)" style="fill:#F5F9FC;" width="33.723" height="2.306"/>
				</g>
			</g>
			<g>
				<g>
					<polygon style="fill:#7AC5EE;" points="54.818,263.052 99.327,245.081 84.78,230.901 79.412,245.768 64.964,235.284 
						60.645,250.458 55.295,248.709 					"/>
				</g>
			</g>
		</g>
		<g>
			<g>
				<g>
					<g>
						<g>
							<path style="fill:#FFA09A;" d="M87.894,330.116c-0.678,7.181-0.587,22.313,2.522,21.976c3.112-0.334,4.715-1.603,2.847-1.917
								c-1.864-0.311-1.96-0.516-1.975-1.083c-0.1-3.561,2.179-10.508,2.865-15.758C94.954,327.255,88.49,323.841,87.894,330.116z"
								/>
						</g>
					</g>
				</g>
				<g>
					<g>
						<g>
							<path style="fill:#FFA09A;" d="M107.027,306.873c-3.137,6.493-8.33,20.706-5.288,21.478c3.033,0.764,4.973,0.145,3.333-0.805
								c-1.64-0.948-1.659-1.168-1.479-1.701c1.154-3.367,5.708-9.093,8.182-13.774
								C114.637,306.644,109.765,301.194,107.027,306.873z"/>
						</g>
					</g>
				</g>
				<g>
					<g>
						<path style="fill:#A0C125;" d="M103.099,295.893c0,0,12.382-5.903,13.693,0.185c1.196,5.482-9.149,25.342-9.149,25.342
							s-3.571,0.757-6.322-1.641l2.779-12.716l-7.786-0.182l1.798-8.773L103.099,295.893z"/>
					</g>
				</g>
				<g>
					<g>
						<path style="fill:#A0C125;" d="M86.358,299.145l0.982,46.147l5.459-0.148l7.023-47.631
							C99.823,297.513,95.704,299.73,86.358,299.145z"/>
					</g>
				</g>
				<g>
					<g>
						<path style="fill:#FFA09A;" d="M99.875,285.06c0,0-4.615-1.33-4.624-7.138c-0.015-5.793,3.337-19.061,3.28-21.213
							c-0.109-3.919-6.051-4.172-3.8-4.372c2.898-0.248,4.71-1.621,5.405,1.373c0.482,2.075,2.771,21.929,2.514,25.289
							C102.384,282.366,103.132,284.926,99.875,285.06z"/>
					</g>
				</g>
				<g>
					<g>
						<path style="fill:#FBB433;" d="M104.429,295.316c0.84-4.94-0.506-11.229-2.627-15.545c-2.941-5.987-8.959-4.801-12.444-3.384
							c-3.485,1.411-9.245,3.604-5.188,10.864c2.837,5.063,2.375,8.725,2.031,14.428l0,0c-0.02,0.153-0.033,0.291-0.048,0.438
							c-0.015-0.004-0.023-0.009-0.023-0.009c0.004,0,0.009,0.005,0.023,0.009C84.832,308.546,103.475,300.933,104.429,295.316z"/>
					</g>
				</g>
				<g>
					<g>
						<path style="fill:#FFA09A;" d="M89.968,287.534c0,0-4.12,2.47-8.382-1.459c-4.253-3.933-12.87-15.204-13.489-17.254
							c-0.621-2.052-7.182,0.399-5.751-1.35c1.436-1.745,2.141-2.986,4.82-1.455c1.846,1.059,17.957,12.882,20.241,15.362
							C89.695,283.857,92.079,285.05,89.968,287.534z"/>
					</g>
				</g>
				<g>
					<g>
						<g>
							<path style="fill:#FF8998;" d="M84.733,274.593c0,0,3.166,0.764,3.099,3.372c-0.075,2.685,8.535-1.039,7.066-1.958
								c-1.907-1.18-3.647-1.122-4.968-3.578L84.733,274.593z"/>
						</g>
					</g>
					<g>
						<g>
							<path style="fill:#FFA09A;" d="M83.297,267.424c2.575-0.363,9.984,2.955,10.095,5.597c0.037,1.145-2.861,3.405-6.962,3.009
								c-1.688-0.167-4.477-0.93-5.669-3.725C80.222,271.037,80.294,267.843,83.297,267.424z"/>
						</g>
					</g>
					<g>
						<g>
							<path style="fill:#1D1B3A;" d="M85.242,266.508c1.03,0.292,1.13,0.523-0.367,3.122c-1.511,2.604-1.979,2.875-1.23,3.082
								c2.17,0.608,0.53,1.996,3.143,2.707c2.608,0.701-0.119,1.698-2.394,1.292c-0.453-0.09-2.779-0.362-4.281-3.423
								C78.354,269.729,81.452,265.454,85.242,266.508z"/>
						</g>
					</g>
					<g>
						<g>
							<path style="fill:#1D1B3A;" d="M80.112,273.288c1.269,2.96,3.828,3.333,4.281,3.423c1.688,0.296,3.667-0.157,3.438-0.72
								c-0.28-0.691-1.649,0.639-2.684-0.873c-1.025-1.501-2.035-0.829-3.052-1.993c-1.016-1.167-0.081-1.869,1.611-4.796
								c0.687-1.197,0.438-1.726-0.09-1.94C80.647,266.728,78.763,270.188,80.112,273.288z"/>
						</g>
					</g>
				</g>
			</g>
			<g>
				<g>
					<path style="fill:#1D1B3A;" d="M104.1,307.064l-5.669-0.134l0.505-3.413C98.936,303.517,98.783,306.368,104.1,307.064z"/>
				</g>
			</g>
			<g>
				<g>
					<path style="fill:#1D1B3A;" d="M86.453,303.816c0,0,9.06,0.372,14.662-4.268c0,0-7.091,7.162-14.595,7.247L86.453,303.816z"/>
				</g>
			</g>
		</g>
	</g>
</g>
</svg>
